<?xml version="1.0" encoding="UTF-8"?>
<svg xmlns="http://www.w3.org/2000/svg" xmlns:xlink="http://www.w3.org/1999/xlink" width="32px" height="32px" viewBox="0 0 32 32" version="1.1">
<g id="surface1">
<path style=" stroke:none;fill-rule:nonzero;fill:rgb(63.921571%,55.686277%,85.882354%);fill-opacity:1;" d="M 27.367188 12.09375 C 27.433594 12.09375 27.496094 12.105469 27.558594 12.117188 C 27.496094 12.113281 27.433594 12.09375 27.367188 12.09375 Z M 27.367188 12.09375 "/>
<path style=" stroke:none;fill-rule:nonzero;fill:rgb(63.921571%,55.686277%,85.882354%);fill-opacity:1;" d="M 29.0625 12.964844 L 28.238281 12.964844 C 28.238281 12.554688 27.945312 12.207031 27.558594 12.117188 C 28.179688 12.175781 28.722656 12.488281 29.0625 12.964844 Z M 29.0625 12.964844 "/>
<path style=" stroke:none;fill-rule:nonzero;fill:rgb(63.921571%,55.686277%,85.882354%);fill-opacity:1;" d="M 6.214844 8.105469 C 6.214844 9.078125 6.378906 10.011719 6.679688 10.882812 L 3.445312 10.882812 L 3.375 10.878906 C 3.296875 10.871094 3.222656 10.863281 3.148438 10.851562 C 3.070312 10.835938 2.992188 10.816406 2.914062 10.785156 C 2.859375 10.769531 2.8125 10.742188 2.761719 10.71875 C 2.679688 10.683594 2.597656 10.636719 2.519531 10.582031 C 2.113281 10.289062 1.84375 9.824219 1.824219 9.289062 C 1.847656 8.546875 2.464844 7.945312 3.21875 7.945312 L 6.21875 7.945312 C 6.214844 8 6.214844 8.050781 6.214844 8.105469 Z M 6.214844 8.105469 "/>
<path style=" stroke:none;fill-rule:nonzero;fill:rgb(63.921571%,55.686277%,85.882354%);fill-opacity:1;" d="M 29.449219 10.03125 L 29.449219 11.632812 C 28.984375 11.253906 28.40625 11.003906 27.789062 10.925781 C 27.777344 10.925781 27.757812 10.917969 27.746094 10.917969 C 27.621094 10.894531 27.492188 10.882812 27.367188 10.882812 L 22.4375 10.882812 C 22.738281 10.011719 22.902344 9.078125 22.902344 8.105469 C 22.902344 8.050781 22.902344 8 22.898438 7.945312 L 27.367188 7.945312 C 28.523438 7.945312 29.449219 8.886719 29.449219 10.03125 Z M 29.449219 10.03125 "/>
<path style=" stroke:none;fill-rule:nonzero;fill:rgb(63.921571%,55.686277%,85.882354%);fill-opacity:1;" d="M 14.558594 0.859375 C 10.621094 0.859375 7.425781 4.105469 7.425781 8.105469 C 7.425781 9.089844 7.621094 10.03125 7.96875 10.882812 L 12.210938 10.882812 C 12.105469 10.601562 12.046875 10.296875 12.046875 9.984375 C 12.046875 9.609375 12.339844 9.296875 12.710938 9.296875 C 13.082031 9.296875 13.382812 9.609375 13.382812 9.984375 C 13.382812 10.34375 13.542969 10.664062 13.792969 10.882812 L 15.320312 10.882812 C 15.570312 10.664062 15.734375 10.34375 15.734375 9.984375 C 15.734375 9.324219 15.207031 8.785156 14.558594 8.785156 C 13.171875 8.785156 12.046875 7.640625 12.046875 6.226562 C 12.046875 5.078125 12.800781 4.074219 13.886719 3.769531 L 13.886719 3.238281 C 13.886719 2.867188 14.1875 2.558594 14.558594 2.558594 C 14.925781 2.558594 15.230469 2.867188 15.230469 3.238281 L 15.230469 3.769531 C 16.320312 4.074219 17.070312 5.078125 17.070312 6.226562 C 17.070312 6.605469 16.773438 6.914062 16.40625 6.914062 C 16.035156 6.914062 15.734375 6.605469 15.734375 6.226562 C 15.734375 5.574219 15.207031 5.035156 14.558594 5.035156 C 13.910156 5.035156 13.382812 5.574219 13.382812 6.226562 C 13.382812 6.886719 13.910156 7.425781 14.558594 7.425781 C 15.945312 7.425781 17.070312 8.570312 17.070312 9.984375 C 17.070312 10.296875 17.011719 10.601562 16.90625 10.882812 L 21.148438 10.882812 C 21.5 10.03125 21.691406 9.089844 21.691406 8.105469 C 21.691406 4.105469 18.496094 0.859375 14.558594 0.859375 Z M 14.558594 0.859375 "/>
<path style=" stroke:none;fill-rule:nonzero;fill:rgb(63.921571%,55.686277%,85.882354%);fill-opacity:1;" d="M 19.421875 20.796875 C 19.371094 21.921875 19.785156 23.003906 20.589844 23.847656 C 21.425781 24.726562 22.601562 25.226562 23.804688 25.226562 L 29.371094 25.226562 C 29.394531 25.226562 29.425781 25.226562 29.449219 25.222656 L 29.449219 29.054688 C 29.449219 30.207031 28.523438 31.136719 27.367188 31.136719 L 3.902344 31.136719 C 2.75 31.136719 1.824219 30.207031 1.824219 29.054688 L 1.824219 11.574219 C 2.25 11.871094 2.757812 12.058594 3.308594 12.089844 C 3.363281 12.09375 3.417969 12.09375 3.476562 12.09375 L 27.367188 12.09375 C 27.433594 12.09375 27.5 12.105469 27.558594 12.117188 C 28.175781 12.171875 28.722656 12.488281 29.0625 12.964844 C 29.304688 13.304688 29.449219 13.722656 29.449219 14.175781 L 29.449219 16.746094 C 29.425781 16.738281 29.394531 16.738281 29.371094 16.738281 L 23.664062 16.738281 C 21.371094 16.738281 19.507812 18.519531 19.421875 20.796875 Z M 19.421875 20.796875 "/>
<path style=" stroke:none;fill-rule:nonzero;fill:rgb(63.921571%,55.686277%,85.882354%);fill-opacity:1;" d="M 29.371094 17.949219 L 23.664062 17.949219 C 22.023438 17.949219 20.691406 19.246094 20.632812 20.851562 C 20.554688 22.589844 22.0625 24.019531 23.804688 24.019531 L 29.371094 24.019531 C 29.8125 24.019531 30.175781 23.65625 30.175781 23.210938 L 30.175781 18.753906 C 30.175781 18.3125 29.8125 17.949219 29.371094 17.949219 Z M 23.976562 22.59375 C 23.078125 22.59375 22.351562 21.875 22.351562 20.976562 C 22.351562 20.082031 23.078125 19.359375 23.976562 19.359375 C 24.863281 19.359375 25.589844 20.082031 25.589844 20.976562 C 25.589844 21.875 24.863281 22.59375 23.976562 22.59375 Z M 23.976562 22.59375 "/>
</g>
</svg>
