<svg width="32" height="33" viewBox="0 0 32 33" fill="none" xmlns="http://www.w3.org/2000/svg">
<path d="M8 12.5C8 14.6217 8.84286 16.6566 10.3431 18.1569C11.8434 19.6571 13.8783 20.5 16 20.5C18.1217 20.5 20.1566 19.6571 21.6569 18.1569C23.1571 16.6566 24 14.6217 24 12.5C24 10.3783 23.1571 8.34344 21.6569 6.84315C20.1566 5.34286 18.1217 4.5 16 4.5C13.8783 4.5 11.8434 5.34286 10.3431 6.84315C8.84286 8.34344 8 10.3783 8 12.5Z" stroke="#FFFEFD" stroke-width="1.4" stroke-linecap="round" stroke-linejoin="round"/>
<path d="M16 20.5L20.5333 28.3533L22.664 24.0427L27.4613 24.352L22.928 16.5" stroke="#FFFEFD" stroke-width="1.4" stroke-linecap="round" stroke-linejoin="round"/>
<path d="M9.06849 16.5L4.53516 24.3533L9.33249 24.0427L11.4632 28.352L15.9965 20.5" stroke="#FFFEFD" stroke-width="1.4" stroke-linecap="round" stroke-linejoin="round"/>
</svg>
