<svg width="42" height="42" viewBox="0 0 42 42" fill="none" xmlns="http://www.w3.org/2000/svg">
<rect width="42" height="42" rx="21" fill="#FBCCD2"/>
<path d="M21.8327 29.3337H15.166C13.4993 29.3337 12.666 28.5003 12.666 26.8337V20.167C12.666 18.5003 13.4993 17.667 15.166 17.667H19.3327V26.8337C19.3327 28.5003 20.166 29.3337 21.8327 29.3337Z" stroke="#131313" stroke-width="1.4" stroke-miterlimit="10" stroke-linecap="round" stroke-linejoin="round"/>
<path d="M19.4243 14.333C19.3577 14.583 19.3327 14.858 19.3327 15.1663V17.6663H15.166V15.9997C15.166 15.083 15.916 14.333 16.8327 14.333H19.4243Z" stroke="#131313" stroke-width="1.4" stroke-miterlimit="10" stroke-linecap="round" stroke-linejoin="round"/>
<path d="M22.666 17.667V21.8337" stroke="#131313" stroke-width="1.4" stroke-miterlimit="10" stroke-linecap="round" stroke-linejoin="round"/>
<path d="M26 17.667V21.8337" stroke="#131313" stroke-width="1.4" stroke-miterlimit="10" stroke-linecap="round" stroke-linejoin="round"/>
<path d="M25.166 25.167H23.4993C23.041 25.167 22.666 25.542 22.666 26.0003V29.3337H25.9993V26.0003C25.9993 25.542 25.6243 25.167 25.166 25.167Z" stroke="#131313" stroke-width="1.4" stroke-miterlimit="10" stroke-linecap="round" stroke-linejoin="round"/>
<path d="M16 21.833V25.1663" stroke="#131313" stroke-width="1.4" stroke-miterlimit="10" stroke-linecap="round" stroke-linejoin="round"/>
<path d="M19.334 26.8337V15.167C19.334 13.5003 20.1673 12.667 21.834 12.667H26.834C28.5007 12.667 29.334 13.5003 29.334 15.167V26.8337C29.334 28.5003 28.5007 29.3337 26.834 29.3337H21.834C20.1673 29.3337 19.334 28.5003 19.334 26.8337Z" stroke="#131313" stroke-width="1.4" stroke-miterlimit="10" stroke-linecap="round" stroke-linejoin="round"/>
</svg>
