<svg width="40" height="40" viewBox="0 0 40 40" fill="none" xmlns="http://www.w3.org/2000/svg">
<path d="M3.72893 3.814C3.07401 3.59568 2.36611 3.94963 2.14779 4.60457C1.92949 5.2595 2.28344 5.9674 2.93836 6.1857L3.37988 6.33288C4.50723 6.70865 5.25256 6.9591 5.80164 7.21453C6.32158 7.4564 6.54638 7.65107 6.69041 7.8509C6.83444 8.05073 6.94803 8.32555 7.01306 8.89528C7.08176 9.49697 7.08364 10.2832 7.08364 11.4716V15.9246C7.08361 18.2039 7.08359 20.0411 7.27786 21.4861C7.47954 22.9862 7.91104 24.2494 8.91423 25.2526C9.91743 26.2557 11.1805 26.6872 12.6807 26.8889C14.1257 27.0832 15.9629 27.0832 18.2421 27.0832H30.0003C30.6906 27.0832 31.2503 26.5236 31.2503 25.8332C31.2503 25.1427 30.6906 24.5832 30.0003 24.5832H18.3336C15.9413 24.5832 14.2728 24.5806 13.0138 24.4112C11.7909 24.2469 11.1433 23.9461 10.682 23.4849C10.29 23.0929 10.014 22.5662 9.83898 21.6666H26.7036C28.3028 21.6666 29.1023 21.6666 29.7285 21.2536C30.3546 20.8407 30.6695 20.1059 31.2995 18.6361L32.0136 16.9694C33.3628 13.8214 34.0375 12.2474 33.2965 11.1236C32.5555 9.99985 30.843 9.99985 27.418 9.99985H9.57541C9.56558 9.48703 9.54404 9.02437 9.49693 8.61172C9.40468 7.80368 9.20368 7.06225 8.71851 6.38912C8.23334 5.716 7.59353 5.29085 6.85614 4.9478C6.16241 4.62508 5.28021 4.33105 4.23624 3.9831L3.72893 3.814Z" fill="#A38EDB"/>
<path d="M12.5 30C13.8807 30 15 31.1193 15 32.5C15 33.8807 13.8807 35 12.5 35C11.1193 35 10 33.8807 10 32.5C10 31.1193 11.1193 30 12.5 30Z" fill="#A38EDB"/>
<path d="M27.5 30C28.8807 30 30 31.1192 30 32.5C30 33.8807 28.8807 35 27.5 35C26.1193 35 25 33.8807 25 32.5C25 31.1192 26.1193 30 27.5 30Z" fill="#A38EDB"/>
</svg>
