<svg width="260" height="62" viewBox="0 0 260 62" fill="none" xmlns="http://www.w3.org/2000/svg">
<g clip-path="url(#clip0_393_3320)">
<path d="M26.8798 36.6092C26.9803 36.7765 27.0149 36.9752 26.9769 37.1665C26.6223 38.7781 25.7593 40.2331 24.5153 41.3173C24.4471 41.3689 24.3897 41.4335 24.3464 41.5072C24.3309 41.541 24.3228 41.5777 24.3228 41.6149C24.3228 41.6521 24.3309 41.6888 24.3464 41.7225C24.3712 41.7514 24.4025 41.7742 24.4377 41.7888C24.4729 41.8035 24.511 41.8097 24.5491 41.807C24.7292 41.759 24.9033 41.691 25.0684 41.6043C25.7981 41.1899 26.4427 40.6412 26.9685 39.9871C27.2852 39.6029 27.5976 39.2186 27.8974 38.8217C28.462 38.0378 28.8798 37.158 29.1304 36.225C29.3584 35.4692 29.5526 34.7049 29.7891 33.9491C29.8857 33.672 30.0028 33.4024 30.1396 33.1427C30.1945 33.0627 30.2583 32.989 30.3295 32.9231H30.3887C30.4477 33.1215 30.5196 33.3116 30.5617 33.5142C30.6722 34.1516 30.6879 34.8018 30.6083 35.4439C30.5206 36.2794 30.3494 37.1041 30.0973 37.9055C29.9207 38.3981 29.6824 38.8663 29.388 39.2989C28.6481 40.5184 27.7742 41.6514 26.7827 42.6768C26.0523 43.3822 25.2626 44.0235 24.4223 44.5938C24.3611 44.6252 24.3054 44.6666 24.2577 44.7163C24.2086 44.7754 24.1831 44.8505 24.186 44.9274C24.2036 44.9617 24.2294 44.9911 24.261 45.0133C24.2926 45.0354 24.3292 45.0494 24.3675 45.0541C24.5441 45.0529 24.72 45.0303 24.891 44.9865C25.6712 44.7617 26.4009 44.3889 27.0403 43.8886C28.8286 42.5702 30.281 40.8488 31.2795 38.864C31.9159 37.569 32.3284 36.1757 32.4998 34.7429C32.6026 33.8385 32.6125 32.9259 32.5294 32.0195C32.4569 31.555 32.4712 31.0811 32.5716 30.6219C32.5982 30.5166 32.6365 30.4146 32.6856 30.3178C32.7996 30.0982 32.9643 30.0856 33.0741 30.3178C33.1895 30.5376 33.2748 30.772 33.3275 31.0145C33.5592 32.176 33.6317 33.3635 33.5428 34.5445C33.3789 36.4631 32.8965 38.341 32.1156 40.1012C31.3247 41.9134 30.1372 43.5252 28.6406 44.8176C28.155 45.2398 27.6906 45.6621 27.1881 46.059C26.5846 46.4978 25.9381 46.8741 25.2584 47.1821C23.7589 47.9271 22.163 48.4601 20.5167 48.7655C19.5076 48.9406 18.4829 49.0087 17.4596 48.9682C16.9572 48.9682 16.4505 48.9345 15.9481 48.9091C14.8121 48.8462 13.6913 48.6186 12.6207 48.2335C11.0705 47.6941 9.58044 46.9949 8.17458 46.1477C6.53506 45.1424 5.13677 43.7888 4.07884 42.1828C3.55657 41.4275 3.10162 40.6278 2.71923 39.7929C2.69974 39.7433 2.66837 39.6993 2.62787 39.6647C2.58738 39.6302 2.539 39.606 2.487 39.5945C2.20933 39.5254 1.95101 39.3941 1.73155 39.2105C1.51211 39.0269 1.33727 38.7957 1.22027 38.5346C0.907177 37.77 0.664099 36.9787 0.494024 36.1701C0.184579 34.8648 0.0189162 33.5297 0 32.1884C0.0126819 31.3392 0.0903207 30.4922 0.232233 29.6549C0.392509 28.5172 0.675657 27.4002 1.07671 26.3235C1.43142 25.3811 1.92994 24.4995 2.55455 23.7098C2.91768 23.2538 3.21748 22.7428 3.57215 22.2784C5.82318 19.3033 9.046 17.2115 12.6799 16.367C13.3808 16.1981 14.0818 16.0208 14.7911 15.8899C15.4244 15.7717 16.0578 15.6956 16.708 15.6365C17.4596 15.569 18.2112 15.5099 18.9671 15.5014C21.9992 15.4592 24.9696 16.3608 27.4668 18.0813C27.7514 18.2534 28.0078 18.4685 28.2267 18.7189C28.3885 18.9159 28.4962 19.1517 28.5393 19.4029C28.556 19.462 28.5898 19.5149 28.6364 19.5549C29.2317 20.1292 29.8651 20.6739 30.414 21.2903C31.2863 22.2434 31.9176 23.3915 32.255 24.6387C32.4096 25.1424 32.4634 25.6717 32.4134 26.1962C32.3634 26.7207 32.2105 27.2303 31.9636 27.6957C31.5506 28.391 30.9699 28.9717 30.2747 29.3847C29.5012 29.911 28.5733 30.1623 27.6399 30.0982C26.7673 30.0584 25.939 29.7028 25.3091 29.0975C24.6474 28.4099 23.9422 27.7653 23.1979 27.1679C22.7081 26.7963 22.2014 26.4459 21.6905 26.1123C21.0729 25.7412 20.3887 25.4945 19.6764 25.3861C18.8662 25.2379 18.0411 25.1883 17.2189 25.2383C15.4217 25.2725 13.6828 25.8823 12.2576 26.9779C11.1896 27.7848 10.3106 28.8151 9.68198 29.9969C9.32598 30.714 9.10146 31.4892 9.01906 32.2855C8.95031 32.7767 8.91084 33.2716 8.90084 33.7675C8.94066 35.1812 9.3093 36.5662 9.97755 37.8126C10.4713 38.7795 11.1284 39.6536 11.9198 40.3968C12.656 41.0582 13.4715 41.6256 14.3478 42.0856C15.345 42.6263 16.4464 42.9473 17.5779 43.0273C19.0638 43.1824 20.5647 42.9572 21.9396 42.3728C22.5986 42.063 23.2054 41.6528 23.7383 41.1567C24.6588 40.3651 25.431 39.4156 26.0185 38.353C26.2381 37.9688 26.3901 37.5466 26.5758 37.1413C26.6307 37.0188 26.694 36.8964 26.7573 36.7782C26.796 36.7208 26.8414 36.6684 26.8925 36.6219" fill="#131313"/>
<path d="M248.011 30.1743C251.052 30.1743 253.078 32.4375 253.078 35.7816C253.078 39.1258 251.052 41.3552 248.011 41.3552C244.971 41.3552 242.911 39.1258 242.911 35.7478C242.911 32.3699 244.937 30.1743 248.011 30.1743ZM159.003 29.8365C161.368 29.8365 162.921 31.1539 163.293 33.2481H154.747C155.118 31.137 156.673 29.8365 159.003 29.8365ZM82.3918 38.0786C82.3918 40.1391 81.1758 41.3552 79.0139 41.3552C76.852 41.3552 75.5684 40.1391 75.5684 38.0786V26.5261C75.5684 26.4141 75.524 26.3068 75.4447 26.2275C75.3655 26.1483 75.2582 26.1039 75.1461 26.1039H70.7549C70.6428 26.1039 70.5355 26.1483 70.4563 26.2275C70.3772 26.3068 70.3326 26.4141 70.3326 26.5261V38.2812C70.3326 43.4158 73.339 45.983 77.1222 45.983C79.8246 45.983 81.6487 44.3278 82.4256 41.8281V45.0371C82.4316 45.1472 82.4781 45.2511 82.556 45.3289C82.6339 45.4068 82.7378 45.4532 82.8479 45.4594H87.2729C87.3849 45.4594 87.4923 45.4149 87.5715 45.3357C87.6507 45.2565 87.6952 45.1491 87.6952 45.0371V26.5261C87.6952 26.4141 87.6507 26.3068 87.5715 26.2275C87.4923 26.1483 87.3849 26.1039 87.2729 26.1039H82.831C82.7189 26.1039 82.6116 26.1483 82.5324 26.2275C82.4531 26.3068 82.4087 26.4141 82.4087 26.5261L82.3918 38.0786ZM127.859 38.0786C127.859 40.1391 126.642 41.3552 124.481 41.3552C122.318 41.3552 121.035 40.1391 121.035 38.0786V26.5261C121.035 26.4141 120.99 26.3068 120.911 26.2275C120.833 26.1483 120.725 26.1039 120.613 26.1039H116.222C116.109 26.1039 116.002 26.1483 115.923 26.2275C115.843 26.3068 115.8 26.4141 115.8 26.5261V38.2812C115.8 43.4158 118.806 45.983 122.59 45.983C125.291 45.983 127.116 44.3278 127.892 41.8281V45.0371C127.898 45.1472 127.945 45.2511 128.023 45.3289C128.101 45.4068 128.205 45.4532 128.314 45.4594H132.739C132.852 45.4594 132.96 45.4149 133.039 45.3357C133.117 45.2565 133.162 45.1491 133.162 45.0371V26.5261C133.162 26.4141 133.117 26.3068 133.039 26.2275C132.96 26.1483 132.852 26.1039 132.739 26.1039H128.298C128.186 26.1039 128.079 26.1483 127.999 26.2275C127.92 26.3068 127.875 26.4141 127.875 26.5261L127.859 38.0786ZM137.486 45.0371C137.486 45.1491 137.531 45.2565 137.609 45.3357C137.688 45.4149 137.796 45.4594 137.908 45.4594H142.266C142.377 45.4594 142.485 45.4149 142.564 45.3357C142.643 45.2565 142.688 45.1491 142.688 45.0371V34.4304C142.688 31.7618 144.377 31.2552 146.742 31.2552H148.497C148.61 31.2552 148.717 31.2107 148.797 31.1316C148.876 31.0524 148.92 30.9449 148.92 30.8329V26.5261C148.92 26.4141 148.876 26.3068 148.797 26.2275C148.717 26.1483 148.61 26.1039 148.497 26.1039H148.076C145.239 26.1039 143.482 27.4213 142.671 30.6303V26.543C142.671 26.431 142.626 26.3236 142.547 26.2444C142.468 26.1652 142.36 26.1208 142.249 26.1208H137.892C137.779 26.1208 137.671 26.1652 137.592 26.2444C137.513 26.3236 137.469 26.431 137.469 26.543L137.486 45.0371ZM205.348 45.0371C205.348 45.1491 205.393 45.2565 205.472 45.3357C205.551 45.4149 205.658 45.4594 205.771 45.4594H210.161C210.274 45.4594 210.382 45.4149 210.461 45.3357C210.539 45.2565 210.584 45.1491 210.584 45.0371V33.2481C210.584 31.3566 211.631 30.1743 213.624 30.1743C215.617 30.1743 216.732 31.3566 216.732 33.2481V45.0371C216.732 45.1491 216.776 45.2565 216.855 45.3357C216.935 45.4149 217.042 45.4594 217.154 45.4594H221.579C221.691 45.4594 221.799 45.4149 221.878 45.3357C221.957 45.2565 222.001 45.1491 222.001 45.0371V33.2481C222.001 31.3566 223.082 30.1743 225.042 30.1743C227.001 30.1743 228.15 31.3566 228.15 33.2481V45.0371C228.155 45.1472 228.202 45.2511 228.28 45.3289C228.357 45.4068 228.461 45.4532 228.571 45.4594H232.963C233.074 45.4594 233.182 45.4149 233.261 45.3357C233.34 45.2565 233.385 45.1491 233.385 45.0371V33.0792C233.385 28.0799 230.429 25.5465 226.663 25.5465C223.488 25.5465 221.867 27.6071 221.022 30.1912C220.784 28.9021 220.107 27.7352 219.106 26.8885C218.106 26.0419 216.843 25.5677 215.533 25.5465C212.763 25.5465 211.513 27.2355 210.567 29.7351V26.5261C210.567 26.4141 210.522 26.3068 210.443 26.2275C210.364 26.1483 210.257 26.1039 210.145 26.1039H205.754C205.641 26.1039 205.534 26.1483 205.455 26.2275C205.375 26.3068 205.332 26.4141 205.332 26.5261L205.348 45.0371ZM258.686 35.7816C258.686 30.1067 255.341 25.5465 249.97 25.5465C246.458 25.5465 243.755 27.4044 242.911 30.0392V26.5261C242.911 26.4141 242.866 26.3068 242.787 26.2275C242.708 26.1483 242.6 26.1039 242.489 26.1039H238.08C237.969 26.1039 237.861 26.1483 237.782 26.2275C237.703 26.3068 237.658 26.4141 237.658 26.5261V52.5362C237.658 52.6481 237.703 52.7555 237.782 52.8347C237.861 52.9139 237.969 52.9583 238.08 52.9583H242.505C242.617 52.9583 242.725 52.9139 242.804 52.8347C242.883 52.7555 242.928 52.6481 242.928 52.5362V41.5579C243.772 44.1927 246.475 46.0168 249.987 46.0168C255.358 46.0168 258.703 41.4903 258.703 35.7816H258.686ZM185.52 34.6416L188.927 25.4452L192.343 34.6416H185.52ZM168.63 35.7901C168.63 30.0138 165.185 25.3185 158.97 25.3185C153.126 25.3185 149.309 30.0138 149.309 35.7901C149.309 41.769 153.565 46.2279 160.05 46.2279C163.564 46.2279 166.57 44.674 167.989 42.6135C168.025 42.5653 168.052 42.51 168.067 42.4512C168.083 42.3922 168.086 42.3309 168.075 42.2708C168.066 42.2107 168.045 42.1532 168.013 42.1018C167.979 42.0504 167.938 42.006 167.888 41.9716L164.931 39.3369C164.891 39.3008 164.843 39.2738 164.79 39.2575C164.738 39.2413 164.683 39.2361 164.629 39.2425C164.576 39.2489 164.522 39.2666 164.476 39.2946C164.429 39.3224 164.389 39.3599 164.357 39.4044C163.853 40.1327 163.175 40.724 162.384 41.125C161.594 41.526 160.717 41.7241 159.83 41.7014C157.331 41.7014 155.034 40.5191 154.696 37.2764H168.208C168.265 37.2816 168.322 37.2742 168.376 37.2548C168.429 37.2354 168.478 37.2045 168.518 37.1642C168.558 37.1239 168.59 37.0753 168.608 37.0216C168.628 36.968 168.635 36.9109 168.63 36.8541V35.7901ZM99.805 30.2165C99.805 30.3284 99.8495 30.4359 99.9287 30.5151C100.008 30.5942 100.115 30.6387 100.227 30.6387H103.065V39.7085C103.065 43.3566 104.923 45.4848 108.807 45.4848H112.422C112.534 45.4848 112.641 45.4402 112.72 45.361C112.8 45.2819 112.843 45.1744 112.843 45.0625V41.2623C112.849 41.2055 112.841 41.1484 112.823 41.0947C112.803 41.0412 112.772 40.9925 112.732 40.9522C112.691 40.9119 112.643 40.881 112.589 40.8616C112.536 40.8422 112.478 40.8349 112.422 40.8401H109.968C108.752 40.8401 108.347 40.4178 108.347 39.3875V30.6471H112.367C112.478 30.6471 112.586 30.6027 112.665 30.5235C112.744 30.4443 112.789 30.3369 112.789 30.225V26.543C112.789 26.431 112.744 26.3236 112.665 26.2444C112.586 26.1652 112.478 26.1208 112.367 26.1208H108.347V20.5472C108.347 20.4352 108.303 20.3278 108.223 20.2486C108.144 20.1694 108.037 20.1249 107.925 20.1249H103.436C103.38 20.1197 103.322 20.1271 103.269 20.1465C103.215 20.1659 103.166 20.1968 103.126 20.2371C103.086 20.2774 103.055 20.3261 103.036 20.3796C103.016 20.4332 103.009 20.4904 103.014 20.5472V26.087H100.177C100.065 26.087 99.9572 26.1314 99.878 26.2107C99.7988 26.2899 99.7544 26.3972 99.7544 26.5092L99.805 30.2165ZM175.674 45.0794C175.655 45.1249 175.648 45.1741 175.653 45.2228C175.657 45.2716 175.674 45.3187 175.7 45.3599C175.726 45.4012 175.762 45.4356 175.804 45.4602C175.847 45.4849 175.895 45.499 175.944 45.5016H181.112C181.241 45.5054 181.367 45.466 181.472 45.3894C181.576 45.3129 181.651 45.2037 181.685 45.0794L183.747 39.472H194.15L196.261 45.0794C196.297 45.2037 196.372 45.3129 196.476 45.3894C196.581 45.466 196.707 45.5054 196.836 45.5016H202.105C202.154 45.499 202.202 45.4849 202.245 45.4602C202.287 45.4356 202.323 45.4012 202.349 45.3599C202.375 45.3187 202.392 45.2716 202.396 45.2228C202.401 45.1741 202.394 45.1249 202.375 45.0794L192.917 20.5218C192.879 20.41 192.806 20.3134 192.708 20.2465C192.611 20.1795 192.496 20.1458 192.377 20.1503H185.655C185.531 20.1381 185.407 20.1682 185.303 20.2357C185.199 20.3032 185.12 20.4041 185.081 20.5218L175.674 45.0794ZM57.9525 40.7556C53.4599 40.7556 50.4535 37.4115 50.4535 32.7837C50.4535 28.156 53.4599 24.8118 57.9525 24.8118C59.1873 24.8246 60.4023 25.1241 61.5015 25.6869C62.6006 26.2497 63.5539 27.0602 64.2862 28.0546C64.3173 28.1094 64.3611 28.1561 64.4138 28.1907C64.4666 28.2252 64.5269 28.2466 64.5897 28.2533C64.6524 28.2599 64.7158 28.2514 64.7747 28.2287C64.8335 28.2058 64.886 28.1693 64.9279 28.1222L68.5086 25.0483C68.5916 24.9723 68.6442 24.8688 68.6566 24.7569C68.669 24.6451 68.6404 24.5326 68.5761 24.4402C66.3804 21.2312 62.6647 19.6098 57.9694 19.6098C49.9469 19.6098 44.6604 25.5887 44.6604 32.7837C44.6604 40.0463 49.9638 46.0252 57.9694 46.0252C62.6647 46.0252 66.6169 44.0322 68.5761 41.1272C68.6413 41.0352 68.6704 40.9224 68.6579 40.8103C68.6455 40.6982 68.5923 40.5947 68.5086 40.5191L64.8941 37.5634C64.8553 37.517 64.8056 37.481 64.7493 37.4585C64.6931 37.436 64.6322 37.4276 64.5721 37.4343C64.5119 37.441 64.4543 37.4625 64.4044 37.4968C64.3545 37.5311 64.3139 37.5772 64.2862 37.631C63.5409 38.6017 62.5818 39.3872 61.4831 39.9263C60.3845 40.4653 59.1763 40.7434 57.9525 40.7387V40.7556ZM96.9 18.7822H92.4242C92.3675 18.777 92.3103 18.7844 92.2567 18.8038C92.2031 18.8231 92.1545 18.8541 92.1142 18.8944C92.0738 18.9347 92.043 18.9833 92.0236 19.0369C92.0042 19.0905 91.9969 19.1477 92.002 19.2044V45.0456C92.002 45.1575 92.0465 45.265 92.1257 45.3441C92.2049 45.4233 92.3123 45.4679 92.4242 45.4679H96.8789C96.9909 45.4679 97.0983 45.4233 97.1775 45.3441C97.2567 45.265 97.3011 45.1575 97.3011 45.0456V19.196C97.3063 19.1393 97.299 19.0821 97.2796 19.0285C97.2602 18.9749 97.2292 18.9262 97.1889 18.8859C97.1487 18.8456 97.1 18.8147 97.0465 18.7953C96.9928 18.7759 96.9357 18.7686 96.8789 18.7738" fill="#131313"/>
</g>
<defs>
<clipPath id="clip0_393_3320">
<rect width="259.625" height="62" fill="white"/>
</clipPath>
</defs>
</svg>
