<svg width="183" height="62" viewBox="0 0 183 62" fill="none" xmlns="http://www.w3.org/2000/svg">
<g clip-path="url(#clip0_393_3325)">
<path d="M180.25 23.4896C180.25 22.7913 179.76 22.3259 178.952 22.3259L177.366 22.355L177.395 25.9043H178.26V24.6824H178.779L179.529 25.9043H180.538L179.644 24.5369C179.829 24.4334 179.983 24.2815 180.09 24.0971C180.196 23.9128 180.252 23.7029 180.25 23.4896ZM178.779 23.9551H178.231V23.0532H178.866C178.98 23.0406 179.095 23.0728 179.186 23.1432C179.277 23.2137 179.338 23.3169 179.356 23.4314V23.4605C179.354 23.5324 179.337 23.6031 179.306 23.6679C179.275 23.7327 179.231 23.7903 179.176 23.8369C179.122 23.8835 179.059 23.9181 178.99 23.9384C178.922 23.9588 178.85 23.9644 178.779 23.9551ZM50.8449 39.8979C49.3741 39.8979 48.3647 38.7342 48.3647 37.0177V29.1918H54.4211V23.6641H48.3791L48.3214 17.3219H41.6305L41.6882 38.4433C41.6882 42.7199 44.5145 45.6292 48.6675 45.6292C50.8593 45.6292 52.9358 45.3092 54.5797 44.5527V39.1706C53.4123 39.7171 52.13 39.9668 50.8449 39.8979ZM66.8223 23.315C60.5928 23.315 55.8054 28.2026 55.8054 34.6903C55.8054 41.1198 60.5928 45.6001 67.1972 45.6001C70.9175 45.6001 74.4072 44.2618 76.5413 41.498L71.4078 39.1415C70.3696 40.1016 68.7834 40.4798 67.3702 40.4798C65.063 40.4798 62.7558 39.287 62.4386 36.8432H77.7526C77.9828 35.9699 78.0991 35.0702 78.0987 34.1666C78.0987 27.5044 73.2824 23.315 66.8367 23.315H66.8223ZM62.4386 32.5665C62.6405 29.6572 64.7169 28.319 66.9953 28.319C69.5621 28.319 71.4943 29.7736 71.4943 32.2756V32.5665H62.4386ZM35.2713 39.8979C33.8005 39.8979 32.7911 38.7342 32.7911 37.0177V29.1918H38.8475V23.6641H32.8055L32.7478 17.3219H26.0569L26.1146 38.4433C26.1146 42.7199 28.9409 45.6292 33.0939 45.6292C35.2857 45.6292 37.3622 45.3092 39.0061 44.5527V39.1706C37.8396 39.7197 36.5566 39.9695 35.2713 39.8979ZM11.7667 23.315C6.02756 23.315 0 27.1262 0 34.8067C0 41.2071 4.26832 45.6874 9.6614 45.6874C12.7473 45.6874 15.0833 44.4364 16.6118 42.2253L16.8137 45.3092H23.2883V35.0685C23.2883 27.2716 17.5924 23.315 11.7667 23.315ZM11.7667 39.7815C8.85388 39.7815 6.74856 37.5996 6.74856 34.5157C6.74856 31.4319 8.82504 29.2499 11.7667 29.2499C14.4777 29.2499 16.7272 31.6356 16.7272 34.5157C16.7272 37.3959 14.4777 39.7815 11.7667 39.7815ZM178.635 20.7258C176.53 20.7549 175.174 22.1222 175.203 24.1587C175.232 26.1952 176.616 27.5335 178.721 27.5044C180.769 27.4753 182.153 26.1079 182.125 24.0423C182.096 21.9768 180.711 20.6967 178.635 20.7258ZM178.721 26.9225C177.078 26.9516 175.953 25.8461 175.953 24.1587C175.953 22.4713 177.02 21.3367 178.664 21.3076C180.308 21.2785 181.404 22.3841 181.432 24.1005C181.432 25.7588 180.336 26.8934 178.736 26.9225H178.721ZM145.93 23.6932L141.258 37.3668L136.529 23.6932H129.261L137.971 45.2801H144.488L153.198 23.6932H145.93ZM163.263 23.315C157.034 23.315 152.246 28.2026 152.246 34.6903C152.246 41.1198 157.034 45.6001 163.638 45.6001C167.358 45.6001 170.848 44.2618 172.982 41.498L167.849 39.1415C166.811 40.1016 165.224 40.4798 163.811 40.4798C161.504 40.4798 159.197 39.287 158.88 36.8432H174.194C174.424 35.9699 174.54 35.0702 174.54 34.1666C174.54 27.5044 169.723 23.315 163.263 23.315ZM167.935 32.5665H158.88C159.081 29.6572 161.158 28.319 163.436 28.319C166.003 28.319 167.935 29.7736 167.935 32.2756V32.5665ZM124.098 14.209C121.734 14.209 119.946 15.8091 119.946 18.0492C119.946 20.2894 121.734 21.9477 124.098 21.9477C126.463 21.9477 128.251 20.3185 128.251 18.0492C128.251 15.78 126.492 14.209 124.098 14.209ZM93.73 23.2859C92.3778 23.2639 91.0429 23.5953 89.8553 24.2478C88.6677 24.9004 87.6677 25.8519 86.9526 27.0098L86.7219 23.6932H80.2617V45.2801H86.9526V33.963C87.0968 31.2573 89.2598 29.1918 91.6247 29.1918C94.2779 29.1918 95.4892 31.1992 95.4892 33.7302V45.251H102.151V32.6829C102.151 27.2135 98.8491 23.2859 93.73 23.2859ZM114.149 39.8979C112.678 39.8979 111.668 38.7342 111.668 37.0177V29.1918H117.725V23.6641H111.668L111.611 17.3219H104.92L104.978 38.4433C104.978 42.7199 107.804 45.6292 111.957 45.6292C114.149 45.6292 116.225 45.3092 117.869 44.5527V39.1706C116.707 39.7173 115.429 39.9671 114.149 39.8979ZM120.724 23.6932V45.2801H127.473V23.6932C126.472 24.362 125.299 24.7187 124.098 24.7187C122.898 24.7187 121.725 24.362 120.724 23.6932Z" fill="#131313"/>
</g>
<defs>
<clipPath id="clip0_393_3325">
<rect width="182.125" height="62" fill="white"/>
</clipPath>
</defs>
</svg>
