<svg width="216" height="62" viewBox="0 0 216 62" fill="none" xmlns="http://www.w3.org/2000/svg">
<g clip-path="url(#clip0_393_3322)">
<path fill-rule="evenodd" clip-rule="evenodd" d="M5.22694 49.2152V43.9882H28.7482V49.2152H5.22694ZM23.7521 23.0805H10.2209L16.9876 32.4454L23.7521 23.0805ZM33.9751 17.8535L16.9876 41.3748L0 17.8535H33.9751Z" fill="#131313"/>
<path d="M54.7039 43.9905V35.6012H46.6588V43.9905H41.8086V23.0827H46.6588V31.265H54.7039V23.0783H59.5541V43.9861L54.7039 43.9905Z" fill="#131313"/>
<path d="M65.6738 43.9905V23.0828H78.922V27.5278H70.524V31.2651H78.1706V35.488H70.524V39.5672H78.922V43.9905H65.6738Z" fill="#131313"/>
<path d="M84.7 43.9905V23.0828H89.548V39.5716H97.9372V43.9949L84.7 43.9905Z" fill="#131313"/>
<path d="M102.007 43.9905V23.0828H106.864V39.5716H115.251V43.9949L102.007 43.9905Z" fill="#131313"/>
<path d="M128.933 44.3325C122.456 44.3325 118.32 39.6827 118.32 33.5476C118.32 27.4124 122.656 22.7343 129.133 22.7343C135.61 22.7343 139.746 27.3863 139.746 33.5476C139.746 39.7088 135.381 44.3325 128.933 44.3325ZM129.013 27.0727C125.705 27.0727 123.479 29.782 123.479 33.5476C123.479 37.3131 125.705 40.0246 129.013 40.0246C132.321 40.0246 134.549 37.2848 134.549 33.5476C134.549 29.8103 132.328 27.0727 129.013 27.0727Z" fill="#131313"/>
<path d="M150.226 44.3325C147.859 44.3325 144.999 43.3916 143.181 42.1916L144.52 37.7988C146.203 39.025 148.401 39.8242 150.37 39.8242C152.082 39.8242 152.737 39.025 152.737 37.9992C152.737 36.9102 152.195 36.1719 149 34.8891C145.319 33.406 144.041 31.2651 144.041 28.754C144.041 25.705 146.521 22.7343 151.4 22.7343C153.682 22.7343 156.024 23.5336 157.25 24.3612L156.019 28.6974C154.819 27.8698 152.881 26.9856 151.396 26.9856C149.627 26.9856 148.915 27.8132 148.915 28.6691C148.915 30.039 149.969 30.4963 152.596 31.6071C156.503 33.2623 157.672 35.1461 157.672 37.8271C157.672 41.1658 155.248 44.3325 150.226 44.3325Z" fill="#131313"/>
<path d="M162.873 43.9906V23.0828H167.723V43.9906H162.873Z" fill="#131313"/>
<path d="M191.902 32.2365V42.2221C189.504 43.6452 186.759 44.3757 183.97 44.3325C177.837 44.3325 172.987 39.9397 172.987 33.5476C172.987 27.1554 177.894 22.7343 184.227 22.7343C186.967 22.7343 189.162 23.4487 191.245 24.5333L189.219 28.4404C187.779 27.6821 186.177 27.281 184.55 27.2709C180.383 27.2709 178.16 29.8669 178.16 33.5476C178.16 37.5418 180.841 40.0246 184.258 40.0246C185.798 40.0246 186.569 39.8526 187.34 39.454V36.3723H183.143V32.2343L191.902 32.2365Z" fill="#131313"/>
<path d="M214.936 44.3891L202.326 33.0641V43.9906H197.476V22.7932L198.129 22.6777L210.569 33.9178V23.0785H215.419V44.3042L214.936 44.3891Z" fill="#131313"/>
</g>
<defs>
<clipPath id="clip0_393_3322">
<rect width="215.708" height="62" fill="white"/>
</clipPath>
</defs>
</svg>
