<svg width="162" height="62" viewBox="0 0 162 62" fill="none" xmlns="http://www.w3.org/2000/svg">
<g clip-path="url(#clip0_393_3316)">
<path d="M0.603516 15.9946H12.2286C19.6488 15.9946 24.3482 21.9308 24.3482 30.0931C24.3482 34.5452 22.8641 38.5027 19.896 40.9761C17.9174 42.7074 15.1965 43.6968 11.7338 43.6968H0.603516V15.9946ZM11.3628 38.8737C16.6807 38.8737 18.6594 35.6582 18.6594 30.2168C18.6594 24.7753 16.3097 20.9415 11.4865 20.9415H6.16868V38.9973H11.3628V38.8737ZM25.2138 33.8032C25.2138 27.867 29.4187 23.2912 35.6021 23.2912C41.7857 23.2912 45.9904 27.867 45.9904 33.8032C45.9904 39.7393 41.7857 44.3152 35.6021 44.3152C29.4187 44.3152 25.2138 39.6157 25.2138 33.8032ZM40.549 33.8032C40.549 29.9694 38.694 27.2487 35.4785 27.2487C32.263 27.2487 30.4081 29.8458 30.4081 33.8032C30.4081 37.7606 32.1394 40.2341 35.4785 40.2341C38.8176 40.2341 40.549 37.637 40.549 33.8032ZM46.9798 33.8032C46.9798 27.867 50.8137 23.2912 56.8735 23.2912C62.0676 23.2912 65.1593 26.2593 65.9014 30.5878H60.7072C60.3362 28.8564 58.9758 27.496 57.1207 27.496C53.9054 27.496 52.2976 29.9694 52.2976 33.8032C52.2976 37.5133 53.7816 40.1103 56.9971 40.1103C59.0995 40.1103 60.5836 38.9973 60.9546 36.7712H66.1487C65.7777 40.9761 62.5623 44.3152 57.2445 44.3152C50.9373 44.1915 46.9798 39.6157 46.9798 33.8032ZM79.9998 43.6968V41.3471H79.8761C78.5157 43.2022 77.0317 44.1915 74.1872 44.1915C69.7351 44.1915 67.2618 41.3471 67.2618 37.0186V23.7859H72.4559V36.153C72.4559 38.5027 73.4452 39.7393 75.795 39.7393C78.2683 39.7393 79.7524 37.8843 79.7524 35.2872V23.7859H85.0703V43.5732H79.9998V43.6968ZM110.67 16.1184H115.988V21.0652H110.67V16.1184ZM110.67 23.7859H115.988V43.5732H110.67V23.7859ZM118.09 44.1915H123.284C123.655 45.4282 124.892 46.4175 127.242 46.4175C130.21 46.4175 131.694 44.9335 131.694 42.3364V40.1103H131.57C130.458 41.4707 128.85 42.4601 126.376 42.4601C121.924 42.4601 117.596 38.9973 117.596 32.9375C117.596 27.0013 121.182 23.2912 126.129 23.2912C128.602 23.2912 130.458 24.2806 131.57 25.8883H131.694V23.7859H136.764V42.0891C136.764 44.9335 135.898 46.7885 134.414 48.1489C132.806 49.7566 130.21 50.375 127.242 50.375C122.048 50.375 118.709 48.1489 118.09 44.1915ZM132.064 32.8139C132.064 29.9694 130.457 27.496 127.366 27.496C124.645 27.496 122.913 29.5984 122.913 32.9375C122.913 36.2766 124.645 38.2553 127.366 38.2553C130.704 38.2553 132.064 35.7819 132.064 32.8139ZM144.308 26.5067C145.792 24.4043 147.648 23.2912 150.244 23.2912C154.326 23.2912 157.046 26.3829 157.046 30.7114V43.6968H151.728V31.5771C151.728 29.4748 150.492 27.9907 148.266 27.9907C145.916 27.9907 144.184 29.8458 144.184 32.5665V43.8204H139.114V24.0332H144.308V26.5067ZM98.6739 27.0013C94.5928 26.1357 92.7379 25.3936 92.7379 23.1676C92.7379 21.1888 94.7165 19.9521 97.6846 19.9521C100.405 19.9521 102.508 21.1888 103.002 23.7859H108.444C107.826 18.4681 103.868 15.5 97.6846 15.5C91.5011 15.5 87.049 18.3444 87.049 23.7859C87.049 29.5984 91.6247 30.8351 96.5716 31.9481C100.776 32.9375 103.373 33.4321 103.373 36.153C103.373 38.75 100.9 39.7393 98.0556 39.7393C94.0982 39.7393 92.2431 38.379 91.8721 35.0399H86.4307C86.678 40.8524 90.8827 44.1915 98.4267 44.1915C104.61 44.1915 109.186 41.0997 109.186 35.4109C109.062 29.5984 104.363 28.238 98.6739 27.0013ZM159.272 27.496C158.159 27.496 157.17 26.5067 157.17 25.3936C157.17 24.2806 158.159 23.2912 159.272 23.2912C160.385 23.2912 161.375 24.2806 161.375 25.3936C161.375 26.5067 160.385 27.496 159.272 27.496ZM159.272 23.6622C158.283 23.6622 157.541 24.4043 157.541 25.3936C157.541 26.3829 158.283 27.125 159.272 27.125C160.262 27.125 161.003 26.3829 161.003 25.3936C161.003 24.4043 160.262 23.6622 159.272 23.6622Z" fill="#131313"/>
<path d="M158.532 24.281H159.274C159.522 24.281 159.768 24.281 159.892 24.4047C160.016 24.5283 160.14 24.652 160.14 24.8993C160.14 25.2704 159.892 25.394 159.768 25.5177L160.264 26.3834H159.768L159.398 25.6414H158.904V26.3834H158.532V24.281ZM158.904 24.652V25.2704H159.274C159.398 25.2704 159.646 25.2704 159.646 24.8993C159.646 24.8993 159.646 24.652 159.522 24.652H158.904Z" fill="#131313"/>
</g>
<defs>
<clipPath id="clip0_393_3316">
<rect width="161.458" height="62" fill="white"/>
</clipPath>
</defs>
</svg>
