<svg width="184" height="62" viewBox="0 0 184 62" fill="none" xmlns="http://www.w3.org/2000/svg">
<g clip-path="url(#clip0_393_3318)">
<path fill-rule="evenodd" clip-rule="evenodd" d="M3.15024 46.3081C-1.05014 42.1434 -1.05007 35.391 3.15037 31.2263L14.5589 19.9146C18.1098 16.3939 23.5257 15.8494 27.6534 18.2811C28.9302 19.0333 28.919 20.7587 27.8688 21.7999C26.8188 22.8411 25.1045 22.7514 23.6792 22.3381C21.8539 21.8088 19.8013 22.2578 18.3618 23.6851L6.95319 34.9967C4.85297 37.0791 4.85294 40.4552 6.95313 42.5377C9.05336 44.6201 12.4586 44.6201 14.5588 42.5377L37.3757 19.9147C41.5763 15.75 48.3864 15.75 52.587 19.9147L63.9957 31.2263C68.1961 35.3909 68.1961 42.1434 63.9957 46.3081C59.7952 50.4729 52.985 50.4729 48.7844 46.3081L44.9816 42.5377L40.2281 47.2508C36.6772 50.7715 31.2613 51.3159 27.1335 48.8842C25.8568 48.1321 25.868 46.4068 26.9182 45.3655C27.9682 44.3243 29.6823 44.4139 31.1078 44.8272C32.9331 45.3566 34.9857 44.9075 36.4252 43.4802L41.3146 38.6325C43.3398 36.6245 46.6233 36.6245 48.6487 38.6325L52.5873 42.5377C54.6875 44.62 58.0926 44.62 60.1928 42.5377C62.293 40.4552 62.293 37.0791 60.1928 34.9967L48.7841 23.6852C46.6839 21.6029 43.2788 21.6029 41.1786 23.6853L18.3617 46.3082C14.1611 50.473 7.3507 50.473 3.15024 46.3081Z" fill="#131313"/>
<path d="M110.108 22.8355C107.465 22.8355 105.463 23.7819 104.141 25.6748C102.98 23.7819 101.138 22.8355 98.6948 22.8355C96.1719 22.8355 94.3297 23.703 93.1283 25.4776V23.3876H87.9623V43.105H93.1283V32.0237C93.1283 29.145 94.61 27.5677 96.8927 27.5677C99.0151 27.5677 100.257 28.9479 100.257 31.314V43.105H105.423V32.0237C105.423 29.145 106.784 27.5677 109.147 27.5677C111.269 27.5677 112.511 28.9479 112.511 31.314V43.105H117.677V30.959C117.677 26.0297 114.713 22.8355 110.108 22.8355Z" fill="#131313"/>
<path d="M136.881 25.7142C135.32 23.7819 133.157 22.8355 130.354 22.8355C127.671 22.8355 125.388 23.8608 123.466 25.8719C121.584 27.8831 120.623 30.3281 120.623 33.2463C120.623 36.1644 121.584 38.6489 123.466 40.6601C125.388 42.6712 127.671 43.6571 130.354 43.6571C133.157 43.6571 135.32 42.7107 136.881 40.7784V43.105H142.048V23.3876H136.881V25.7142ZM127.35 37.2686C126.309 36.2039 125.789 34.8631 125.789 33.2463C125.789 31.6294 126.309 30.2887 127.35 29.2634C128.392 28.1986 129.713 27.686 131.315 27.686C132.917 27.686 134.238 28.1986 135.28 29.2634C136.361 30.2887 136.881 31.6294 136.881 33.2463C136.881 34.8631 136.361 36.2039 135.28 37.2686C134.238 38.294 132.917 38.8066 131.315 38.8066C129.713 38.8066 128.392 38.294 127.35 37.2686Z" fill="#131313"/>
<path d="M161.109 26.7789V23.3875H146.092V28.1591H154.14L145.69 39.7135V43.1049H161.509V38.3333H152.618L161.109 26.7789Z" fill="#131313"/>
<path d="M183.109 35.3363C183.229 34.5871 183.309 33.9167 183.309 33.2463C183.309 30.2887 182.349 27.8437 180.426 25.8325C178.544 23.8213 176.101 22.8355 173.178 22.8355C170.094 22.8355 167.532 23.8213 165.569 25.8325C163.607 27.8043 162.605 30.2887 162.605 33.2463C162.605 36.2433 163.607 38.7278 165.609 40.6994C167.612 42.6712 170.255 43.6571 173.578 43.6571C177.422 43.6571 180.347 42.2374 182.309 39.4375L178.144 37.0715C177.142 38.3728 175.621 39.0432 173.658 39.0432C170.575 39.0432 168.693 37.8208 168.012 35.3363H183.109ZM167.932 31.3928C168.532 28.869 170.414 27.4099 173.178 27.4099C175.54 27.4099 177.543 28.7113 178.144 31.3928H167.932Z" fill="#131313"/>
</g>
<defs>
<clipPath id="clip0_393_3318">
<rect width="183.417" height="62" fill="white"/>
</clipPath>
</defs>
</svg>
