<svg width="29" height="29" viewBox="0 0 29 29" fill="none" xmlns="http://www.w3.org/2000/svg">
<g clip-path="url(#clip0_18_628)">
<path d="M8.96111 27.595L9.45189 21.7692H6.96243C4.30933 21.7692 2.15085 19.6108 2.15085 16.9577V4.81158C2.15085 2.15849 4.30933 0 6.96243 0H21.8376C24.4907 0 26.6492 2.15849 26.6492 4.81158V16.9577C26.6492 19.6108 24.4907 21.7692 21.8376 21.7692H19.4797L10.7495 28.5644C9.9915 29.1543 8.87937 28.5643 8.96111 27.595Z" fill="#A38EDB"/>
<path d="M21.8376 0H14.4001V25.723L19.4797 21.7692H21.8376C24.4907 21.7692 26.6492 19.6108 26.6492 16.9577V4.81158C26.6492 2.15849 24.4908 0 21.8376 0Z" fill="#A38EDB" fill-opacity="0.29"/>
<path d="M9.8985 14.8005V6.96899C9.8985 6.11461 10.8255 5.58096 11.5641 6.0074L18.3464 9.92313C19.0862 10.3502 19.0851 11.4198 18.3464 11.8463L11.5641 15.762C10.8299 16.186 9.8985 15.6605 9.8985 14.8005Z" fill="#F1F2F2"/>
<path d="M18.3463 9.92294L14.4001 7.64453V14.1245L18.3464 11.8461C19.0861 11.419 19.0851 10.3494 18.3463 9.92294Z" fill="#E6E7E8"/>
</g>
<defs>
<clipPath id="clip0_18_628">
<rect width="28.8" height="28.8" fill="transparent"/>
</clipPath>
</defs>
</svg>
