<svg fill="#A38EDB" width="30" height="30" viewBox="144 144 512 512" xmlns="http://www.w3.org/2000/svg">
  <path d="m526.53 181.61H273.08c-58.133 0-105.61 47.477-105.61 106v146.88c0 54.258 40.883 99.211 93.398 105.22v45.73c0 12.594 7.168 24.027 18.41 29.648 10.289 5.1445 24.285 4.4883 34.684-3.4883l91.848-71.113h120.72c58.516-.003906 105.99-47.477 105.99-106v-146.88c0-58.52-47.477-106-106-106zm-74.02 211.41-59.684 42.242c-11.789 8.4219-27.133 9.9219-40.691 2.9062-12.984-6.7812-21.121-20.152-21.121-34.879v-84.484c0-14.727 8.1367-28.098 21.121-34.879 13.176-6.7812 28.68-5.6211 40.691 2.9062l59.684 42.242c22.105 15.852 21.762 48.344 0 63.945z"/>
</svg>
