<svg width="42" height="42" viewBox="0 0 42 42" fill="none" xmlns="http://www.w3.org/2000/svg">
<rect width="42" height="42" rx="21" fill="#FBCCD2"/>
<path d="M29 15V27C29 27.5304 28.7893 28.0391 28.4142 28.4142C28.0391 28.7893 27.5304 29 27 29H17C16.4696 29 15.9609 28.7893 15.5858 28.4142C15.2107 28.0391 15 27.5304 15 27V15C15 14.4696 15.2107 13.9609 15.5858 13.5858C15.9609 13.2107 16.4696 13 17 13H27C27.5304 13 28.0391 13.2107 28.4142 13.5858C28.7893 13.9609 29 14.4696 29 15Z" stroke="#131313" stroke-width="1.4" stroke-linecap="round" stroke-linejoin="round"/>
<path d="M19 25H25" stroke="#131313" stroke-width="1.4" stroke-linecap="round" stroke-linejoin="round"/>
<path d="M20 20C20 20.5304 20.2107 21.0391 20.5858 21.4142C20.9609 21.7893 21.4696 22 22 22C22.5304 22 23.0391 21.7893 23.4142 21.4142C23.7893 21.0391 24 20.5304 24 20C24 19.4696 23.7893 18.9609 23.4142 18.5858C23.0391 18.2107 22.5304 18 22 18C21.4696 18 20.9609 18.2107 20.5858 18.5858C20.2107 18.9609 20 19.4696 20 20Z" stroke="#131313" stroke-width="1.4" stroke-linecap="round" stroke-linejoin="round"/>
<path d="M13 17H16" stroke="#131313" stroke-width="1.4" stroke-linecap="round" stroke-linejoin="round"/>
<path d="M13 21H16" stroke="#131313" stroke-width="1.4" stroke-linecap="round" stroke-linejoin="round"/>
<path d="M13 25H16" stroke="#131313" stroke-width="1.4" stroke-linecap="round" stroke-linejoin="round"/>
</svg>
