<svg width="1106" height="128" viewBox="0 0 1106 128" fill="none" xmlns="http://www.w3.org/2000/svg">
<path d="M1105.24 2.92788C1105.35 2.38595 1104.99 1.86033 1104.45 1.75386L1095.62 0.0189314C1095.08 -0.0875325 1094.55 0.265479 1094.45 0.807405C1094.34 1.34933 1094.69 1.87496 1095.23 1.98142L1103.08 3.52358L1101.54 11.3735C1101.44 11.9155 1101.79 12.4411 1102.33 12.5475C1102.87 12.654 1103.4 12.301 1103.51 11.7591L1105.24 2.92788ZM829.573 121.736L829.344 122.709L829.573 121.736ZM963.323 97.3882L962.766 96.5581L963.323 97.3882ZM427.887 49.6686L428.166 50.629L427.887 49.6686ZM514.208 47.4674L514.437 46.494L514.208 47.4674ZM133.591 109.461L133.332 110.427L133.591 109.461ZM224.942 108.526L225.221 109.487L224.942 108.526ZM0.258789 73.7351L-3.00109e-05 74.701L1.96074 75.2264L2.21956 74.2605L2.47838 73.2946L0.517608 72.7692L0.258789 73.7351ZM6.1411 75.3113L5.88228 76.2772L9.80382 77.328L10.0626 76.362L10.3215 75.3961L6.39992 74.3453L6.1411 75.3113ZM13.9842 77.4128L13.7254 78.3787L17.6469 79.4295L17.9057 78.4636L18.1645 77.4977L14.243 76.4469L13.9842 77.4128ZM21.8273 79.5144L21.5684 80.4803L25.49 81.5311L25.7488 80.5651L26.0076 79.5992L22.0861 78.5484L21.8273 79.5144ZM29.6704 81.6159L29.4115 82.5818L33.3331 83.6326L33.5919 82.6667L33.8507 81.7008L29.9292 80.65L29.6704 81.6159ZM37.5134 83.7175L37.2546 84.6834L41.1762 85.7342L41.435 84.7682L41.6938 83.8023L37.7723 82.7515L37.5134 83.7175ZM45.3565 85.819L45.0977 86.7849L49.0192 87.8357L49.2781 86.8698L49.5369 85.9039L45.6153 84.8531L45.3565 85.819ZM53.1996 87.9206L52.9408 88.8865L56.8623 89.9373L57.1211 88.9713L57.38 88.0054L53.4584 86.9546L53.1996 87.9206ZM61.0427 90.0221L60.7839 90.988L64.7054 92.0388L64.9642 91.0729L65.223 90.107L61.3015 89.0562L61.0427 90.0221ZM68.8858 92.1236L68.627 93.0896L72.5485 94.1404L72.8073 93.1744L73.0661 92.2085L69.1446 91.1577L68.8858 92.1236ZM76.7288 94.2252L76.47 95.1911L80.3916 96.2419L80.6504 95.276L80.9092 94.31L76.9877 93.2593L76.7288 94.2252ZM84.5719 96.3267L84.3131 97.2927L88.2346 98.3434L88.4935 97.3775L88.7523 96.4116L84.8307 95.3608L84.5719 96.3267ZM92.415 98.4283L92.1562 99.3942L96.0777 100.445L96.3365 99.4791L96.5954 98.5131L92.6738 97.4624L92.415 98.4283ZM100.258 100.53L99.9993 101.496L103.921 102.547L104.18 101.581L104.438 100.615L100.517 99.5639L100.258 100.53ZM108.101 102.631L107.842 103.597L111.764 104.648L112.023 103.682L112.282 102.716L108.36 101.665L108.101 102.631ZM115.944 104.733L115.685 105.699L119.607 106.75L119.866 105.784L120.125 104.818L116.203 103.767L115.944 104.733ZM123.787 106.834L123.528 107.8L127.45 108.851L127.709 107.885L127.968 106.919L124.046 105.869L123.787 106.834ZM131.63 108.936L131.372 109.902L133.332 110.427L133.591 109.461L133.85 108.495L131.889 107.97L131.63 108.936ZM133.591 109.461L133.332 110.427C133.957 110.595 134.582 110.758 135.208 110.918L135.456 109.95L135.703 108.981C135.085 108.823 134.467 108.661 133.85 108.495L133.591 109.461ZM139.199 110.862L138.974 111.837C140.233 112.129 141.495 112.406 142.76 112.669L142.963 111.69L143.167 110.711C141.918 110.451 140.67 110.177 139.425 109.888L139.199 110.862ZM146.745 112.432L146.564 113.416C147.835 113.65 149.108 113.87 150.383 114.076L150.542 113.089L150.701 112.101C149.441 111.898 148.183 111.681 146.927 111.449L146.745 112.432ZM154.354 113.659L154.217 114.649C155.498 114.826 156.78 114.988 158.063 115.135L158.177 114.142L158.291 113.149C157.023 113.003 155.756 112.843 154.491 112.668L154.354 113.659ZM162.01 114.539L161.919 115.534C163.206 115.653 164.494 115.757 165.783 115.846L165.852 114.848L165.921 113.851C164.647 113.763 163.374 113.66 162.102 113.543L162.01 114.539ZM169.699 115.071L169.653 116.07C170.944 116.13 172.235 116.175 173.527 116.206L173.55 115.206L173.574 114.206C172.298 114.176 171.021 114.131 169.745 114.072L169.699 115.071ZM177.404 115.254L177.403 116.254C178.695 116.255 179.987 116.242 181.279 116.214L181.257 115.214L181.236 114.215C179.959 114.242 178.682 114.255 177.405 114.254L177.404 115.254ZM185.109 115.088L185.153 116.087C186.444 116.03 187.734 115.958 189.024 115.871L188.957 114.874L188.89 113.876C187.616 113.961 186.341 114.032 185.065 114.089L185.109 115.088ZM192.799 114.572L192.888 115.568C194.175 115.453 195.461 115.323 196.745 115.178L196.633 114.184L196.521 113.19C195.252 113.334 193.981 113.462 192.709 113.576L192.799 114.572ZM200.457 113.709L200.592 114.7C201.872 114.526 203.15 114.338 204.427 114.135L204.27 113.148L204.113 112.16C202.851 112.36 201.588 112.547 200.323 112.718L200.457 113.709ZM208.069 112.5L208.248 113.483C209.519 113.252 210.787 113.006 212.054 112.745L211.852 111.766L211.65 110.786C210.399 111.044 209.145 111.287 207.89 111.516L208.069 112.5ZM215.618 110.946L215.841 111.921C217.1 111.632 218.356 111.329 219.61 111.011L219.364 110.042L219.118 109.072C217.879 109.386 216.638 109.686 215.394 109.972L215.618 110.946ZM223.088 109.053L223.356 110.016C223.978 109.843 224.6 109.667 225.221 109.487L224.942 108.526L224.664 107.566C224.05 107.744 223.436 107.918 222.821 108.089L223.088 109.053ZM224.942 108.526L225.221 109.487L227.172 108.921L226.894 107.96L226.615 107L224.664 107.566L224.942 108.526ZM230.796 106.828L231.075 107.789L234.978 106.657L234.699 105.697L234.421 104.736L230.518 105.868L230.796 106.828ZM238.602 104.565L238.881 105.525L242.783 104.393L242.505 103.433L242.226 102.472L238.324 103.604L238.602 104.565ZM246.408 102.301L246.686 103.261L250.589 102.129L250.31 101.169L250.032 100.209L246.129 101.34L246.408 102.301ZM254.213 100.037L254.492 100.998L258.395 99.8657L258.116 98.9053L257.837 97.9448L253.935 99.0767L254.213 100.037ZM262.019 97.7734L262.297 98.7338L266.2 97.6019L265.922 96.6415L265.643 95.6811L261.74 96.813L262.019 97.7734ZM269.824 95.5096L270.103 96.4701L274.006 95.3382L273.727 94.3777L273.449 93.4173L269.546 94.5492L269.824 95.5096ZM277.63 93.2459L277.909 94.2063L281.811 93.0744L281.533 92.114L281.254 91.1536L277.351 92.2854L277.63 93.2459ZM285.436 90.9821L285.714 91.9425L289.617 90.8107L289.338 89.8502L289.06 88.8898L285.157 90.0217L285.436 90.9821ZM293.241 88.7184L293.52 89.6788L297.422 88.5469L297.144 87.5865L296.865 86.6261L292.963 87.7579L293.241 88.7184ZM301.047 86.4546L301.325 87.415L305.228 86.2831L304.95 85.3227L304.671 84.3623L300.768 85.4942L301.047 86.4546ZM308.852 84.1908L309.131 85.1513L313.034 84.0194L312.755 83.059L312.477 82.0985L308.574 83.2304L308.852 84.1908ZM316.658 81.9271L316.936 82.8875L320.839 81.7556L320.561 80.7952L320.282 79.8348L316.379 80.9667L316.658 81.9271ZM324.464 79.6633L324.742 80.6237L328.645 79.4919L328.366 78.5314L328.088 77.571L324.185 78.7029L324.464 79.6633ZM332.269 77.3996L332.548 78.36L336.45 77.2281L336.172 76.2677L335.893 75.3073L331.991 76.4391L332.269 77.3996ZM340.075 75.1358L340.353 76.0962L344.256 74.9643L343.977 74.0039L343.699 73.0435L339.796 74.1754L340.075 75.1358ZM347.88 72.872L348.159 73.8325L352.062 72.7006L351.783 71.7402L351.505 70.7797L347.602 71.9116L347.88 72.872ZM355.686 70.6083L355.964 71.5687L359.867 70.4368L359.589 69.4764L359.31 68.516L355.407 69.6479L355.686 70.6083ZM363.491 68.3445L363.77 69.305L367.673 68.1731L367.394 67.2126L367.116 66.2522L363.213 67.3841L363.491 68.3445ZM371.297 66.0808L371.576 67.0412L375.478 65.9093L375.2 64.9489L374.921 63.9885L371.018 65.1203L371.297 66.0808ZM379.103 63.817L379.381 64.7774L383.284 63.6456L383.005 62.6851L382.727 61.7247L378.824 62.8566L379.103 63.817ZM386.908 61.5533L387.187 62.5137L391.09 61.3818L390.811 60.4214L390.532 59.4609L386.63 60.5928L386.908 61.5533ZM394.714 59.2895L394.992 60.2499L398.895 59.118L398.617 58.1576L398.338 57.1972L394.435 58.3291L394.714 59.2895ZM402.519 57.0257L402.798 57.9862L406.701 56.8543L406.422 55.8939L406.144 54.9334L402.241 56.0653L402.519 57.0257ZM410.325 54.762L410.604 55.7224L414.506 54.5905L414.228 53.6301L413.949 52.6697L410.046 53.8016L410.325 54.762ZM418.131 52.4982L418.409 53.4586L422.312 52.3268L422.033 51.3663L421.755 50.4059L417.852 51.5378L418.131 52.4982ZM425.936 50.2345L426.215 51.1949L428.166 50.629L427.887 49.6686L427.609 48.7081L425.658 49.274L425.936 50.2345ZM427.887 49.6686L428.166 50.629C428.798 50.4457 429.43 50.2663 430.064 50.0905L429.797 49.1269L429.529 48.1633C428.888 48.3411 428.248 48.5227 427.609 48.7081L427.887 49.6686ZM433.633 48.1109L433.877 49.0805C435.153 48.7584 436.432 48.4515 437.713 48.1596L437.491 47.1846L437.269 46.2095C435.973 46.5048 434.679 46.8154 433.388 47.1413L433.633 48.1109ZM441.37 46.3487L441.57 47.3286C442.859 47.0665 444.151 46.8196 445.445 46.5878L445.268 45.6035L445.092 44.6191C443.783 44.8536 442.476 45.1035 441.171 45.3687L441.37 46.3487ZM449.182 44.9495L449.335 45.9377C450.635 45.7361 451.937 45.5497 453.241 45.3786L453.11 44.3871L452.98 43.3956C451.661 43.5687 450.344 43.7573 449.029 43.9614L449.182 44.9495ZM457.051 43.9165L457.158 44.9108C458.465 44.7701 459.775 44.6446 461.085 44.5345L461.001 43.538L460.917 42.5415C459.592 42.653 458.267 42.7799 456.944 42.9223L457.051 43.9165ZM464.959 43.2519L465.019 44.25C466.332 44.1705 467.646 44.1063 468.96 44.0574L468.922 43.0581L468.885 42.0588C467.556 42.1083 466.227 42.1732 464.898 42.2537L464.959 43.2519ZM472.889 42.957L472.903 43.9569C474.218 43.9387 475.533 43.9359 476.848 43.9484L476.858 42.9484L476.867 41.9485C475.537 41.9358 474.206 41.9387 472.876 41.9571L472.889 42.957ZM480.825 43.0325L480.792 44.032C482.106 44.0752 483.42 44.1337 484.733 44.2076L484.79 43.2092L484.846 42.2107C483.517 42.136 482.188 42.0768 480.858 42.033L480.825 43.0325ZM488.749 43.4783L488.669 44.4751C489.98 44.5796 491.289 44.6994 492.598 44.8345L492.701 43.8398L492.803 42.8451C491.479 42.7084 490.154 42.5872 488.828 42.4815L488.749 43.4783ZM496.643 44.2934L496.517 45.2855C497.821 45.451 499.123 45.6317 500.424 45.8278L500.573 44.839L500.723 43.8502C499.406 43.6518 498.088 43.4688 496.769 43.3014L496.643 44.2934ZM504.49 45.4761L504.318 46.4612C505.613 46.6873 506.905 46.9287 508.196 47.1853L508.391 46.2045L508.586 45.2237C507.28 44.9641 505.972 44.7198 504.662 44.491L504.49 45.4761ZM512.274 47.0238L512.056 47.9997C512.698 48.1429 513.339 48.2899 513.979 48.4407L514.208 47.4674L514.437 46.494C513.789 46.3414 513.141 46.1927 512.492 46.0478L512.274 47.0238ZM514.208 47.4674L513.979 48.4407L515.95 48.9049L516.179 47.9315L516.408 46.9582L514.437 46.494L514.208 47.4674ZM520.121 48.8599L519.892 49.8333L523.834 50.7616L524.063 49.7882L524.292 48.8149L520.35 47.8865L520.121 48.8599ZM528.005 50.7166L527.776 51.69L531.718 52.6183L531.947 51.6449L532.177 50.6716L528.235 49.7432L528.005 50.7166ZM535.889 52.5733L535.66 53.5467L539.602 54.475L539.831 53.5017L540.061 52.5283L536.119 51.5999L535.889 52.5733ZM543.774 54.43L543.544 55.4034L547.486 56.3317L547.716 55.3584L547.945 54.385L544.003 53.4566L543.774 54.43ZM551.658 56.2867L551.428 57.2601L555.371 58.1884L555.6 57.2151L555.829 56.2417L551.887 55.3133L551.658 56.2867ZM559.542 58.1434L559.313 59.1168L563.255 60.0451L563.484 59.0718L563.713 58.0984L559.771 57.17L559.542 58.1434ZM567.426 60.0001L567.197 60.9735L571.139 61.9018L571.368 60.9285L571.597 59.9551L567.655 59.0267L567.426 60.0001ZM575.31 61.8568L575.081 62.8302L579.023 63.7585L579.252 62.7852L579.481 61.8118L575.539 60.8834L575.31 61.8568ZM583.194 63.7135L582.965 64.6869L586.907 65.6152L587.136 64.6419L587.366 63.6685L583.423 62.7402L583.194 63.7135ZM591.078 65.5702L590.849 66.5436L594.791 67.4719L595.02 66.4986L595.25 65.5252L591.308 64.5969L591.078 65.5702ZM598.962 67.4269L598.733 68.4003L602.675 69.3287L602.905 68.3553L603.134 67.3819L599.192 66.4536L598.962 67.4269ZM606.847 69.2836L606.617 70.257L610.559 71.1854L610.789 70.212L611.018 69.2386L607.076 68.3103L606.847 69.2836ZM614.731 71.1403L614.502 72.1137L618.444 73.0421L618.673 72.0687L618.902 71.0953L614.96 70.167L614.731 71.1403ZM622.615 72.997L622.386 73.9704L626.328 74.8988L626.557 73.9254L626.786 72.952L622.844 72.0237L622.615 72.997ZM630.499 74.8537L630.27 75.8271L634.212 76.7555L634.441 75.7821L634.67 74.8087L630.728 73.8804L630.499 74.8537ZM638.383 76.7104L638.154 77.6838L642.096 78.6122L642.325 77.6388L642.554 76.6654L638.612 75.7371L638.383 76.7104ZM646.267 78.5672L646.038 79.5405L649.98 80.4689L650.209 79.4955L650.439 78.5221L646.497 77.5938L646.267 78.5672ZM654.151 80.4239L653.922 81.3972L657.864 82.3256L658.093 81.3522L658.323 80.3788L654.381 79.4505L654.151 80.4239ZM662.036 82.2806L661.806 83.2539L665.748 84.1823L665.978 83.2089L666.207 82.2355L662.265 81.3072L662.036 82.2806ZM669.92 84.1373L669.69 85.1106L673.632 86.039L673.862 85.0656L674.091 84.0922L670.149 83.1639L669.92 84.1373ZM677.804 85.994L677.575 86.9673L681.517 87.8957L681.746 86.9223L681.975 85.9489L678.033 85.0206L677.804 85.994ZM685.688 87.8507L685.459 88.824L689.401 89.7524L689.63 88.779L689.859 87.8056L685.917 86.8773L685.688 87.8507ZM693.572 89.7074L693.343 90.6807L697.285 91.6091L697.514 90.6357L697.743 89.6623L693.801 88.734L693.572 89.7074ZM701.456 91.5641L701.227 92.5374L705.169 93.4658L705.398 92.4924L705.627 91.519L701.685 90.5907L701.456 91.5641ZM709.34 93.4208L709.111 94.3941L713.053 95.3225L713.282 94.3491L713.511 93.3757L709.569 92.4474L709.34 93.4208ZM717.224 95.2775L716.995 96.2508L720.937 97.1792L721.166 96.2058L721.396 95.2324L717.454 94.3041L717.224 95.2775ZM725.108 97.1342L724.879 98.1075L728.821 99.0359L729.051 98.0625L729.28 97.0891L725.338 96.1608L725.108 97.1342ZM732.993 98.9909L732.763 99.9642L736.705 100.893L736.935 99.9192L737.164 98.9458L733.222 98.0175L732.993 98.9909ZM740.877 100.848L740.647 101.821L744.59 102.749L744.819 101.776L745.048 100.803L741.106 99.8742L740.877 100.848ZM748.761 102.704L748.532 103.678L752.474 104.606L752.703 103.633L752.932 102.659L748.99 101.731L748.761 102.704ZM756.645 104.561L756.416 105.534L760.358 106.463L760.587 105.489L760.816 104.516L756.874 103.588L756.645 104.561ZM764.529 106.418L764.3 107.391L768.242 108.319L768.471 107.346L768.7 106.373L764.758 105.444L764.529 106.418ZM772.413 108.274L772.184 109.248L776.126 110.176L776.355 109.203L776.584 108.229L772.642 107.301L772.413 108.274ZM780.297 110.131L780.068 111.104L784.01 112.033L784.239 111.059L784.469 110.086L780.526 109.158L780.297 110.131ZM788.181 111.988L787.952 112.961L791.894 113.889L792.123 112.916L792.353 111.943L788.411 111.014L788.181 111.988ZM796.065 113.844L795.836 114.818L799.778 115.746L800.008 114.773L800.237 113.799L796.295 112.871L796.065 113.844ZM803.95 115.701L803.72 116.675L807.662 117.603L807.892 116.63L808.121 115.656L804.179 114.728L803.95 115.701ZM811.834 117.558L811.604 118.531L815.547 119.46L815.776 118.486L816.005 117.513L812.063 116.584L811.834 117.558ZM819.718 119.415L819.489 120.388L823.431 121.316L823.66 120.343L823.889 119.37L819.947 118.441L819.718 119.415ZM827.602 121.271L827.373 122.245L829.344 122.709L829.573 121.736L829.803 120.762L827.831 120.298L827.602 121.271ZM829.573 121.736L829.344 122.709C830.016 122.867 830.689 123.021 831.362 123.171L831.58 122.195L831.797 121.219C831.132 121.071 830.467 120.919 829.803 120.762L829.573 121.736ZM835.605 123.041L835.411 124.022C836.766 124.29 838.122 124.54 839.479 124.775L839.649 123.789L839.819 122.804C838.478 122.572 837.137 122.324 835.799 122.06L835.605 123.041ZM843.711 124.439L843.565 125.429C844.93 125.63 846.297 125.815 847.665 125.984L847.787 124.991L847.909 123.999C846.557 123.832 845.207 123.65 843.857 123.45L843.711 124.439ZM851.875 125.444L851.777 126.439C853.151 126.575 854.525 126.693 855.899 126.795L855.973 125.798L856.047 124.801C854.689 124.7 853.331 124.583 851.973 124.449L851.875 125.444ZM860.078 126.052L860.029 127.051C861.407 127.12 862.785 127.172 864.163 127.207L864.189 126.207L864.215 125.208C862.853 125.173 861.49 125.121 860.128 125.054L860.078 126.052ZM868.302 126.263L868.301 127.263C869.681 127.265 871.06 127.25 872.438 127.218L872.415 126.219L872.393 125.219C871.03 125.25 869.667 125.265 868.303 125.263L868.302 126.263ZM876.526 126.075L876.573 127.074C877.951 127.009 879.328 126.928 880.704 126.83L880.632 125.832L880.561 124.835C879.202 124.932 877.841 125.012 876.479 125.076L876.526 126.075ZM884.732 125.49L884.827 126.485C886.2 126.354 887.571 126.206 888.94 126.041L888.821 125.048L888.702 124.056C887.349 124.218 885.993 124.364 884.636 124.494L884.732 125.49ZM892.899 124.508L893.042 125.498C894.407 125.3 895.77 125.086 897.129 124.856L896.962 123.87L896.795 122.884C895.451 123.112 894.105 123.323 892.756 123.519L892.899 124.508ZM901.009 123.133L901.2 124.115C902.554 123.851 903.904 123.571 905.252 123.275L905.037 122.299L904.822 121.322C903.491 121.615 902.156 121.891 900.818 122.151L901.009 123.133ZM909.043 121.367L909.282 122.338C910.621 122.01 911.956 121.665 913.288 121.304L913.026 120.339L912.765 119.374C911.449 119.731 910.129 120.071 908.805 120.396L909.043 121.367ZM916.983 119.215L917.268 120.174C918.589 119.781 919.907 119.372 921.219 118.947L920.911 117.995L920.603 117.044C919.306 117.464 918.004 117.868 916.698 118.256L916.983 119.215ZM924.809 116.681L925.14 117.625C926.441 117.169 927.737 116.696 929.028 116.208L928.674 115.273L928.32 114.338C927.045 114.82 925.764 115.287 924.478 115.737L924.809 116.681ZM932.504 113.772L932.88 114.698C934.157 114.179 935.429 113.645 936.695 113.095L936.296 112.178L935.898 111.261C934.646 111.804 933.39 112.332 932.128 112.845L932.504 113.772ZM940.048 110.493L940.469 111.4C941.719 110.821 942.963 110.225 944.201 109.615L943.759 108.718L943.316 107.821C942.093 108.425 940.863 109.013 939.628 109.586L940.048 110.493ZM947.425 106.853L947.889 107.739C949.11 107.1 950.324 106.445 951.531 105.775L951.045 104.901L950.56 104.026C949.367 104.689 948.167 105.336 946.961 105.968L947.425 106.853ZM954.617 102.861L955.123 103.723C956.311 103.026 957.492 102.313 958.666 101.585L958.138 100.735L957.611 99.8857C956.452 100.605 955.285 101.309 954.111 101.999L954.617 102.861ZM961.607 98.5254L962.155 99.3623C962.732 98.9847 963.307 98.6034 963.881 98.2184L963.323 97.3882L962.766 96.5581C962.199 96.9386 961.63 97.3154 961.06 97.6886L961.607 98.5254ZM963.323 97.3882L963.881 98.2184L965.558 97.0916L965.001 96.2614L964.443 95.4313L962.766 96.5581L963.323 97.3882ZM968.357 94.0078L968.914 94.8379L972.27 92.5843L971.712 91.7541L971.155 90.924L967.799 93.1776L968.357 94.0078ZM975.068 89.5005L975.625 90.3306L978.981 88.077L978.423 87.2468L977.866 86.4167L974.51 88.6703L975.068 89.5005ZM981.779 84.9932L982.336 85.8233L985.692 83.5697L985.135 82.7395L984.577 81.9094L981.221 84.163L981.779 84.9932ZM988.49 80.4859L989.048 81.316L992.403 79.0624L991.846 78.2322L991.288 77.4021L987.933 79.6557L988.49 80.4859ZM995.201 75.9786L995.759 76.8087L999.115 74.5551L998.557 73.7249L997.999 72.8948L994.644 75.1484L995.201 75.9786ZM1001.91 71.4713L1002.47 72.3015L1005.83 70.0478L1005.27 69.2177L1004.71 68.3875L1001.36 70.6411L1001.91 71.4713ZM1008.62 66.964L1009.18 67.7942L1012.54 65.5405L1011.98 64.7104L1011.42 63.8802L1008.07 66.1339L1008.62 66.964ZM1015.34 62.4567L1015.89 63.2869L1019.25 61.0332L1018.69 60.2031L1018.13 59.3729L1014.78 61.6266L1015.34 62.4567ZM1022.05 57.9494L1022.6 58.7796L1025.96 56.5259L1025.4 55.6958L1024.84 54.8656L1021.49 57.1193L1022.05 57.9494ZM1028.76 53.4421L1029.32 54.2723L1032.67 52.0186L1032.11 51.1885L1031.56 50.3583L1028.2 52.612L1028.76 53.4421ZM1035.47 48.9348L1036.03 49.765L1039.38 47.5113L1038.82 46.6812L1038.27 45.851L1034.91 48.1047L1035.47 48.9348ZM1042.18 44.4275L1042.74 45.2577L1046.09 43.0041L1045.54 42.1739L1044.98 41.3438L1041.62 43.5974L1042.18 44.4275ZM1048.89 39.9203L1049.45 40.7504L1052.8 38.4968L1052.25 37.6666L1051.69 36.8365L1048.33 39.0901L1048.89 39.9203ZM1055.6 35.413L1056.16 36.2431L1059.52 33.9895L1058.96 33.1593L1058.4 32.3292L1055.04 34.5828L1055.6 35.413ZM1062.31 30.9057L1062.87 31.7358L1066.23 29.4822L1065.67 28.652L1065.11 27.8219L1061.76 30.0755L1062.31 30.9057ZM1069.02 26.3984L1069.58 27.2285L1072.94 24.9749L1072.38 24.1447L1071.82 23.3146L1068.47 25.5682L1069.02 26.3984ZM1075.74 21.8911L1076.29 22.7212L1079.65 20.4676L1079.09 19.6374L1078.53 18.8073L1075.18 21.0609L1075.74 21.8911ZM1082.45 17.3838L1083 18.2139L1086.36 15.9603L1085.8 15.1302L1085.25 14.3L1081.89 16.5536L1082.45 17.3838ZM1089.16 12.8765L1089.72 13.7067L1093.07 11.453L1092.51 10.6229L1091.96 9.7927L1088.6 12.0463L1089.16 12.8765ZM1095.87 8.36921L1096.43 9.19936L1099.78 6.94572L1099.23 6.11556L1098.67 5.28541L1095.31 7.53906L1095.87 8.36921ZM1102.58 3.86192L1103.14 4.69207L1104.82 3.56526L1104.26 2.73511L1103.7 1.90495L1102.02 3.03177L1102.58 3.86192Z" fill="#A29B9B"/>
</svg>
