<svg width="17" height="17" viewBox="0 0 17 17" fill="none" xmlns="http://www.w3.org/2000/svg">
<g clip-path="url(#clip0_2_805)">
<path d="M2.13672 8.50098C2.13672 9.28891 2.29191 10.0691 2.59344 10.7971C2.89497 11.525 3.33693 12.1865 3.89408 12.7436C4.45123 13.3008 5.11266 13.7427 5.84062 14.0443C6.56857 14.3458 7.34879 14.501 8.13672 14.501C8.92465 14.501 9.70487 14.3458 10.4328 14.0443C11.1608 13.7427 11.8222 13.3008 12.3794 12.7436C12.9365 12.1865 13.3785 11.525 13.68 10.7971C13.9815 10.0691 14.1367 9.28891 14.1367 8.50098C14.1367 7.71305 13.9815 6.93283 13.68 6.20488C13.3785 5.47692 12.9365 4.81549 12.3794 4.25834C11.8222 3.70118 11.1608 3.25923 10.4328 2.9577C9.70487 2.65617 8.92465 2.50098 8.13672 2.50098C7.34879 2.50098 6.56857 2.65617 5.84062 2.9577C5.11266 3.25923 4.45123 3.70118 3.89408 4.25834C3.33693 4.81549 2.89497 5.47692 2.59344 6.20488C2.29191 6.93283 2.13672 7.71305 2.13672 8.50098Z" stroke="black" stroke-width="1.4" stroke-linecap="round" stroke-linejoin="round"/>
<path d="M6.13672 2.90088C9.47005 6.90088 10.8034 9.90088 11.1367 13.7009" stroke="black" stroke-width="1.4" stroke-linecap="round" stroke-linejoin="round"/>
<path d="M4.4043 13.1677C6.73763 10.8344 8.4043 8.83437 14.071 8.90103" stroke="black" stroke-width="1.4" stroke-linecap="round" stroke-linejoin="round"/>
<path d="M2.20312 7.66781C5.53646 7.66781 8.74579 7.41447 12.4125 4.33447" stroke="black" stroke-width="1.4" stroke-linecap="round" stroke-linejoin="round"/>
</g>
<defs>
<clipPath id="clip0_2_805">
<rect width="16" height="16" fill="white" transform="translate(0.136719 0.500977)"/>
</clipPath>
</defs>
</svg>
