<svg width="19" height="15" viewBox="0 0 19 15" fill="none" xmlns="http://www.w3.org/2000/svg">
<path d="M17.625 3.125V11.875C17.625 12.3723 17.4275 12.8492 17.0758 13.2008C16.7242 13.5525 16.2473 13.75 15.75 13.75H3.25C2.75272 13.75 2.27581 13.5525 1.92417 13.2008C1.57254 12.8492 1.375 12.3723 1.375 11.875V3.125M17.625 3.125C17.625 2.62772 17.4275 2.15081 17.0758 1.79917C16.7242 1.44754 16.2473 1.25 15.75 1.25H3.25C2.75272 1.25 2.27581 1.44754 1.92417 1.79917C1.57254 2.15081 1.375 2.62772 1.375 3.125M17.625 3.125V3.3275C17.625 3.64762 17.5431 3.96242 17.387 4.24191C17.2309 4.5214 17.0059 4.75628 16.7333 4.92417L10.4833 8.77C10.1877 8.95211 9.84725 9.04854 9.5 9.04854C9.15275 9.04854 8.81233 8.95211 8.51667 8.77L2.26667 4.925C1.9941 4.75711 1.76906 4.52224 1.61297 4.24275C1.45689 3.96325 1.37496 3.64845 1.375 3.32833V3.125" stroke="#1E0A52" stroke-width="1.5" stroke-linecap="round" stroke-linejoin="round"/>
</svg>
