<svg width="40" height="40" viewBox="0 0 40 40" fill="none" xmlns="http://www.w3.org/2000/svg">
<path d="M38.4 17.1999L36 26.9332C35.3333 29.9999 33.0666 32.3999 30.1333 33.4666L24.4 35.5999C23.8666 35.7332 23.3333 35.5999 22.9333 35.1999L18.8 30.6666C16.6666 28.3999 15.8666 25.1999 16.5333 22.1332L18.8 12.3999C18.9333 11.8666 19.4666 11.3332 20.1333 11.3332C26.2666 11.3332 32.1333 12.7999 37.6 15.4666C38.2666 15.9999 38.5333 16.6666 38.4 17.1999ZM21.7333 23.7332C21.0666 26.2666 22.6666 28.7999 25.2 29.3332C27.7333 29.9999 30.2666 28.3999 30.8 25.8666M32.4 19.4666C31.3333 19.1999 30.2666 19.8666 30 20.9332C29.7333 21.9999 30.4 23.0666 31.4666 23.3332C32.5333 23.5999 33.6 22.9332 33.8666 21.8666C34.1333 20.7999 33.4666 19.7332 32.4 19.4666ZM23.3333 17.3332C22.2666 17.0666 21.2 17.7332 20.9333 18.7999C20.6666 19.8666 21.3333 20.9332 22.4 21.1999C23.4666 21.4666 24.5333 20.7999 24.8 19.7332C25.0666 18.6666 24.4 17.5999 23.3333 17.3332ZM14.6666 29.1999L11.8666 28.5332C8.79997 27.7332 6.39998 25.4666 5.33331 22.5332L1.59998 11.8666C1.33331 11.3332 1.59998 10.6666 2.13331 10.2666C7.33331 6.93324 12.9333 4.93324 19.0666 4.3999C19.7333 4.3999 20.2666 4.66657 20.4 5.33324L21.7333 9.06657C21.2 9.06657 20.6666 9.06657 20.1333 9.06657C18.2666 9.06657 16.6666 10.2666 16.2666 12.1332L14.8 18.3999C14.6666 18.3999 14.5333 18.3999 14.4 18.5332C12 19.3332 10.6666 21.9999 11.6 24.5332L13.7333 23.7332C13.6 25.4666 13.8666 27.3332 14.6666 29.1999ZM10.9333 15.9999C10.5333 14.9332 9.46664 14.3999 8.39998 14.7999C7.33331 15.0666 6.66664 16.2666 7.06664 17.3332C7.46664 18.3999 8.53331 18.9332 9.59997 18.5332C10.6666 18.1332 11.2 17.0666 10.9333 15.9999Z" fill="#A38EDB"/>
</svg>
