<svg width="17" height="17" viewBox="0 0 17 17" fill="none" xmlns="http://www.w3.org/2000/svg">
<g clip-path="url(#clip0_2_807)">
<path d="M12.1367 1.8335C12.3 1.83352 12.4576 1.89347 12.5796 2.00197C12.7017 2.11048 12.7796 2.26 12.7987 2.42216L12.8034 2.50016V5.16683C12.8034 5.33012 12.7434 5.48772 12.6349 5.60974C12.5264 5.73177 12.3769 5.80972 12.2147 5.82883L12.1367 5.8335H10.1367V6.50016H12.1367C12.2316 6.5002 12.3254 6.5205 12.4118 6.5597C12.4983 6.5989 12.5753 6.6561 12.6379 6.72748C12.7004 6.79886 12.747 6.88277 12.7745 6.9736C12.802 7.06442 12.8098 7.16008 12.7974 7.25416L12.7841 7.32883L12.1174 9.9955C12.0843 10.1272 12.0118 10.2456 11.9096 10.3349C11.8074 10.4243 11.6803 10.4803 11.5454 10.4955L11.4701 10.5002H10.1367V14.5002C10.1367 14.6635 10.0767 14.8211 9.96824 14.9431C9.85974 15.0651 9.71022 15.1431 9.54805 15.1622L9.47005 15.1668H6.80339C6.6401 15.1668 6.48249 15.1069 6.36047 14.9984C6.23845 14.8898 6.16049 14.7403 6.14139 14.5782L6.13672 14.5002V10.5002H4.80339C4.6401 10.5001 4.48249 10.4402 4.36047 10.3317C4.23845 10.2232 4.16049 10.0737 4.14139 9.9115L4.13672 9.8335V7.16683C4.13674 7.00354 4.19669 6.84594 4.3052 6.72391C4.4137 6.60189 4.56322 6.52393 4.72539 6.50483L4.80339 6.50016H6.13672V5.8335C6.13668 4.79858 6.53776 3.80392 7.2557 3.05851C7.97363 2.31311 8.95253 1.87497 9.98672 1.83616L10.1367 1.8335H12.1367Z" fill="black"/>
</g>
<defs>
<clipPath id="clip0_2_807">
<rect width="16" height="16" fill="white" transform="translate(0.136719 0.5)"/>
</clipPath>
</defs>
</svg>
