<svg width="32" height="32" viewBox="0 0 32 32" fill="none" xmlns="http://www.w3.org/2000/svg">
<mask id="mask0_19_753" style="mask-type:luminance" maskUnits="userSpaceOnUse" x="0" y="0" width="32" height="32">
<path d="M32 0H0V32H32V0Z" fill="white"/>
</mask>
<g mask="url(#mask0_19_753)">
<path d="M30.3957 14.9381C30.3869 15.4178 30.2181 15.8443 29.8805 16.1997C29.2408 16.8482 28.6011 17.4968 27.9525 18.1276C27.1796 18.8739 26.0957 18.8384 25.305 18.0476C22.2221 14.9736 19.148 11.8907 16.0651 8.81663C15.3632 8.11476 14.6702 7.42178 13.9684 6.71989C13.1243 5.86698 13.1155 4.80085 13.9684 3.95683C14.537 3.37933 15.1145 2.81072 15.692 2.24212C16.5271 1.41586 17.6377 1.41586 18.4728 2.25101C22.2398 6.01802 26.0068 9.79394 29.7828 13.561C30.1559 13.9253 30.3869 14.3783 30.3957 14.9381Z" fill="#A38EDB"/>
<path d="M1.60059 17.017C1.61836 16.5462 1.79604 16.1198 2.13366 15.7732C2.75558 15.1424 3.37748 14.5116 4.01716 13.8897C4.78124 13.1523 5.90068 13.1434 6.64697 13.8986C10.4673 17.71 14.2876 21.5304 18.0991 25.3507C18.8631 26.1147 18.8454 27.1987 18.0902 27.9716C17.5039 28.5758 16.8997 29.171 16.3044 29.7663C15.4516 30.6104 14.3853 30.6104 13.5413 29.7574C10.032 26.248 6.52259 22.7386 3.01323 19.2293C2.72003 18.9361 2.42685 18.6518 2.14254 18.3587C1.78716 17.9766 1.60947 17.5412 1.60059 17.017Z" fill="#A38EDB"/>
<path d="M1.66517 19.4336C5.29893 23.0674 8.91492 26.6834 12.5665 30.3349C12.0956 30.7791 11.6425 31.2856 11.1005 31.6853C10.3986 32.2007 9.46576 32.0496 8.79942 31.3922C7.15579 29.7575 5.51216 28.1138 3.87742 26.4702C2.81128 25.404 1.74513 24.3379 0.670113 23.2629C-0.218336 22.3744 -0.218336 21.3261 0.678997 20.4287C1.01661 20.0911 1.34533 19.7535 1.66517 19.4336Z" fill="#A38EDB"/>
<path d="M19.4854 1.69115C19.8852 1.27358 20.2673 0.811577 20.7026 0.429544C21.4399 -0.201255 22.4883 -0.130178 23.2079 0.58058C24.2742 1.63783 25.3314 2.69509 26.3886 3.76123C28.0323 5.40486 29.667 7.03961 31.3107 8.68324C32.2346 9.60722 32.2258 10.6379 31.3017 11.5707C30.973 11.8995 30.6444 12.2282 30.3334 12.5481C26.6996 8.91424 23.0925 5.29825 19.4854 1.69115Z" fill="#A38EDB"/>
<path d="M16.9112 11.2241C18.1906 12.5035 19.4877 13.8006 20.7671 15.08C18.8835 16.9634 16.9912 18.8559 15.1165 20.7304C13.8549 19.46 12.5489 18.154 11.2695 16.8657C13.1175 15.0178 15.0099 13.1254 16.9112 11.2241Z" fill="#A38EDB"/>
<path d="M5.88576 30.0058C5.07727 31.1074 3.82456 31.214 2.88281 30.2722C2.51854 29.9169 2.16317 29.5526 1.7989 29.1884C0.777182 28.1666 0.830488 27.0383 2.02101 26.061C3.30926 27.3759 4.59752 28.6908 5.88576 30.0058Z" fill="#A38EDB"/>
<path d="M26.1445 1.9313C26.9263 0.882929 28.1968 0.785199 29.1298 1.71807C29.5028 2.08234 29.8671 2.45548 30.2314 2.81975C31.2265 3.81481 31.1465 4.99644 30.0537 5.84935C28.7566 4.54333 27.4505 3.23732 26.1445 1.9313Z" fill="#A38EDB"/>
</g>
</svg>
