<?xml version="1.0" encoding="UTF-8"?>
<svg xmlns="http://www.w3.org/2000/svg" xmlns:xlink="http://www.w3.org/1999/xlink" width="32px" height="32px" viewBox="0 0 32 32" version="1.1">
<g id="surface1">
<path style=" stroke:none;fill-rule:nonzero;fill:rgb(63.921571%,55.686277%,85.882354%);fill-opacity:1;" d="M 22.316406 4.808594 C 20.945312 4.808594 18.277344 6.75 16.011719 6.75 C 13.75 6.75 10.921875 4.808594 9.710938 4.808594 C 1.386719 4.808594 -3.378906 27.191406 2.84375 27.191406 C 8.09375 27.191406 8.800781 20.644531 15.992188 20.644531 C 21.8125 20.644531 25.226562 27.113281 29.105469 27.113281 C 35.324219 27.113281 30.640625 4.808594 22.316406 4.808594 Z M 9.226562 17.414062 C 6.816406 17.414062 4.859375 15.460938 4.859375 13.050781 C 4.859375 10.640625 6.816406 8.6875 9.226562 8.6875 C 11.632812 8.6875 13.589844 10.640625 13.589844 13.050781 C 13.589844 15.460938 11.636719 17.414062 9.226562 17.414062 Z M 20.800781 14.992188 C 20.265625 14.992188 19.832031 14.558594 19.832031 14.019531 C 19.832031 13.484375 20.265625 13.050781 20.800781 13.050781 C 21.335938 13.050781 21.769531 13.484375 21.769531 14.019531 C 21.769531 14.558594 21.335938 14.992188 20.800781 14.992188 Z M 23.769531 17.898438 C 23.234375 17.898438 22.800781 17.464844 22.800781 16.929688 C 22.800781 16.394531 23.234375 15.960938 23.769531 15.960938 C 24.308594 15.960938 24.742188 16.394531 24.742188 16.929688 C 24.742188 17.464844 24.304688 17.898438 23.769531 17.898438 Z M 23.769531 12.082031 C 23.234375 12.082031 22.800781 11.648438 22.800781 11.113281 C 22.800781 10.574219 23.234375 10.140625 23.769531 10.140625 C 24.308594 10.140625 24.742188 10.574219 24.742188 11.113281 C 24.742188 11.648438 24.304688 12.082031 23.769531 12.082031 Z M 26.679688 14.992188 C 26.144531 14.992188 25.710938 14.558594 25.710938 14.019531 C 25.710938 13.484375 26.144531 13.050781 26.679688 13.050781 C 27.214844 13.050781 27.648438 13.484375 27.648438 14.019531 C 27.648438 14.558594 27.214844 14.992188 26.679688 14.992188 Z M 9.226562 10.625 C 7.886719 10.625 6.800781 11.710938 6.800781 13.050781 C 6.800781 14.390625 7.886719 15.476562 9.226562 15.476562 C 10.5625 15.476562 11.648438 14.390625 11.648438 13.050781 C 11.648438 11.710938 10.5625 10.625 9.226562 10.625 Z M 9.226562 10.625 "/>
</g>
</svg>
