<svg width="32" height="30" viewBox="0 0 32 30" fill="none" xmlns="http://www.w3.org/2000/svg">
<path opacity="0.992" fill-rule="evenodd" clip-rule="evenodd" d="M31.9688 8.33855C31.9688 9.08857 31.9688 9.83857 31.9688 10.5886C31.5926 13.0078 30.6655 15.1953 29.1875 17.1511C27.7115 19.0445 26.0969 20.8257 24.3438 22.4948C21.8673 24.7533 19.3673 26.9825 16.8438 29.1823C16.2604 29.5573 15.6771 29.5573 15.0938 29.1823C12.1399 26.6455 9.22325 24.0621 6.34375 21.4323C4.68767 19.8606 3.21892 18.1419 1.9375 16.2761C0.875794 14.5594 0.219546 12.7052 -0.03125 10.7136C-0.03125 9.94277 -0.03125 9.17187 -0.03125 8.40105C0.480257 4.84663 2.35526 2.29454 5.59375 0.744802C9.36756 -0.64325 12.8259 -0.0911679 15.9688 2.40105C18.9285 0.0404119 22.2202 -0.574175 25.8438 0.557302C29.3429 2.00348 31.3846 4.59723 31.9688 8.33855ZM14.0312 7.96355C15.3229 7.96355 16.6146 7.96355 17.9062 7.96355C17.9062 9.25527 17.9062 10.5469 17.9062 11.8386C19.1979 11.8386 20.4896 11.8386 21.7812 11.8386C21.7812 13.1094 21.7812 14.3803 21.7812 15.6511C20.4896 15.6511 19.1979 15.6511 17.9062 15.6511C17.9062 16.9428 17.9062 18.2344 17.9062 19.5261C16.6146 19.5261 15.3229 19.5261 14.0312 19.5261C14.0312 18.2344 14.0312 16.9428 14.0312 15.6511C12.7396 15.6511 11.4479 15.6511 10.1562 15.6511C10.1562 14.3803 10.1562 13.1094 10.1562 11.8386C11.4479 11.8386 12.7396 11.8386 14.0312 11.8386C14.0312 10.5469 14.0312 9.25527 14.0312 7.96355Z" fill="#A38EDB"/>
</svg>
