<svg width="17" height="17" viewBox="0 0 17 17" fill="none" xmlns="http://www.w3.org/2000/svg">
<g clip-path="url(#clip0_2_811)">
<path d="M2.80273 5.83317C2.80273 5.12593 3.08369 4.44765 3.58378 3.94755C4.08388 3.44746 4.76216 3.1665 5.4694 3.1665H10.8027C11.51 3.1665 12.1883 3.44746 12.6884 3.94755C13.1884 4.44765 13.4694 5.12593 13.4694 5.83317V11.1665C13.4694 11.8737 13.1884 12.552 12.6884 13.0521C12.1883 13.5522 11.51 13.8332 10.8027 13.8332H5.4694C4.76216 13.8332 4.08388 13.5522 3.58378 13.0521C3.08369 12.552 2.80273 11.8737 2.80273 11.1665V5.83317Z" stroke="black" stroke-width="1.4" stroke-linecap="round" stroke-linejoin="round"/>
<path d="M6.13672 8.5C6.13672 9.03043 6.34743 9.53914 6.7225 9.91421C7.09758 10.2893 7.60629 10.5 8.13672 10.5C8.66715 10.5 9.17586 10.2893 9.55093 9.91421C9.92601 9.53914 10.1367 9.03043 10.1367 8.5C10.1367 7.96957 9.92601 7.46086 9.55093 7.08579C9.17586 6.71071 8.66715 6.5 8.13672 6.5C7.60629 6.5 7.09758 6.71071 6.7225 7.08579C6.34743 7.46086 6.13672 7.96957 6.13672 8.5Z" stroke="black" stroke-width="1.4" stroke-linecap="round" stroke-linejoin="round"/>
<path d="M11.1367 5.5V5.50667" stroke="black" stroke-width="1.4" stroke-linecap="round" stroke-linejoin="round"/>
</g>
<defs>
<clipPath id="clip0_2_811">
<rect width="16" height="16" fill="white" transform="translate(0.136719 0.5)"/>
</clipPath>
</defs>
</svg>
