<svg width="135" height="17" viewBox="0 0 135 17" fill="none" xmlns="http://www.w3.org/2000/svg">
<path d="M6.37979 0.559654C8.06011 0.559654 9.5285 0.892691 10.785 1.55876C12.0414 2.22484 13.0102 3.1634 13.6915 4.37444C14.3878 5.57034 14.736 6.95547 14.736 8.52983C14.736 10.089 14.3878 11.4742 13.6915 12.6852C13.0102 13.8963 12.0338 14.8348 10.7622 15.5009C9.50579 16.167 8.04497 16.5 6.37979 16.5H0.407837V0.559654H6.37979ZM6.13001 13.1394C7.5984 13.1394 8.74132 12.7382 9.55878 11.9359C10.3762 11.1336 10.785 9.99822 10.785 8.52983C10.785 7.06144 10.3762 5.91852 9.55878 5.10106C8.74132 4.28361 7.5984 3.87488 6.13001 3.87488H4.29074V13.1394H6.13001ZM26.1477 13.6843H20.1984L19.2447 16.5H15.1802L20.9478 0.559654H25.4438L31.2114 16.5H27.1014L26.1477 13.6843ZM25.1486 10.687L23.1731 4.85129L21.2203 10.687H25.1486ZM38.0531 16.6589C36.8875 16.6589 35.8429 16.4697 34.9195 16.0913C33.9961 15.7128 33.2543 15.1527 32.6942 14.411C32.1493 13.6692 31.8616 12.776 31.8314 11.7315H35.9641C36.0246 12.3219 36.229 12.776 36.5771 13.0939C36.9253 13.3967 37.3795 13.5481 37.9396 13.5481C38.5148 13.5481 38.969 13.4194 39.302 13.1621C39.635 12.8896 39.8015 12.5187 39.8015 12.0494C39.8015 11.6558 39.6653 11.3304 39.3928 11.073C39.1355 10.8157 38.81 10.6037 38.4164 10.4372C38.038 10.2707 37.493 10.0815 36.7815 9.86954C35.7521 9.55164 34.912 9.23375 34.261 8.91585C33.6101 8.59795 33.05 8.12867 32.5807 7.50801C32.1114 6.88735 31.8768 6.07747 31.8768 5.07836C31.8768 3.59483 32.4142 2.43677 33.489 1.60418C34.5638 0.756449 35.9641 0.332584 37.6898 0.332584C39.4458 0.332584 40.8612 0.756449 41.936 1.60418C43.0108 2.43677 43.5861 3.6024 43.6617 5.10106H39.4609C39.4307 4.58637 39.2414 4.18521 38.8933 3.89759C38.5451 3.59483 38.0985 3.44345 37.5535 3.44345C37.0843 3.44345 36.7058 3.57212 36.4182 3.82947C36.1306 4.07168 35.9868 4.42742 35.9868 4.8967C35.9868 5.41139 36.229 5.81255 36.7134 6.10017C37.1978 6.3878 37.9547 6.69813 38.9841 7.03116C40.0135 7.37934 40.8461 7.71237 41.4819 8.03027C42.1328 8.34817 42.6929 8.80988 43.1622 9.4154C43.6315 10.0209 43.8661 10.8005 43.8661 11.7542C43.8661 12.6625 43.6315 13.4875 43.1622 14.2293C42.708 14.9711 42.042 15.5614 41.164 16.0004C40.286 16.4394 39.249 16.6589 38.0531 16.6589ZM59.3803 0.559654V16.5H55.4974V9.93766H49.4574V16.5H45.5745V0.559654H49.4574V6.80409H55.4974V0.559654H59.3803ZM67.2698 16.6589C66.1042 16.6589 65.0596 16.4697 64.1362 16.0913C63.2128 15.7128 62.471 15.1527 61.9109 14.411C61.366 13.6692 61.0783 12.776 61.0481 11.7315H65.1807C65.2413 12.3219 65.4457 12.776 65.7938 13.0939C66.142 13.3967 66.5962 13.5481 67.1563 13.5481C67.7315 13.5481 68.1856 13.4194 68.5187 13.1621C68.8517 12.8896 69.0182 12.5187 69.0182 12.0494C69.0182 11.6558 68.882 11.3304 68.6095 11.073C68.3522 10.8157 68.0267 10.6037 67.6331 10.4372C67.2547 10.2707 66.7097 10.0815 65.9982 9.86954C64.9688 9.55164 64.1287 9.23375 63.4777 8.91585C62.8268 8.59795 62.2667 8.12867 61.7974 7.50801C61.3281 6.88735 61.0935 6.07747 61.0935 5.07836C61.0935 3.59483 61.6309 2.43677 62.7057 1.60418C63.7805 0.756449 65.1807 0.332584 66.9065 0.332584C68.6625 0.332584 70.0779 0.756449 71.1527 1.60418C72.2275 2.43677 72.8027 3.6024 72.8784 5.10106H68.6776C68.6474 4.58637 68.4581 4.18521 68.11 3.89759C67.7618 3.59483 67.3152 3.44345 66.7702 3.44345C66.301 3.44345 65.9225 3.57212 65.6349 3.82947C65.3473 4.07168 65.2035 4.42742 65.2035 4.8967C65.2035 5.41139 65.4457 5.81255 65.9301 6.10017C66.4145 6.3878 67.1714 6.69813 68.2008 7.03116C69.2302 7.37934 70.0628 7.71237 70.6986 8.03027C71.3495 8.34817 71.9096 8.80988 72.3789 9.4154C72.8482 10.0209 73.0828 10.8005 73.0828 11.7542C73.0828 12.6625 72.8482 13.4875 72.3789 14.2293C71.9247 14.9711 71.2587 15.5614 70.3807 16.0004C69.5027 16.4394 68.4657 16.6589 67.2698 16.6589ZM86.2582 0.559654V3.67052H82.0347V16.5H78.1518V3.67052H73.9283V0.559654H86.2582ZM97.4487 13.6843H91.4995L90.5458 16.5H86.4812L92.2488 0.559654H96.7448L102.512 16.5H98.4024L97.4487 13.6843ZM96.4496 10.687L94.4741 4.85129L92.5213 10.687H96.4496ZM102.928 8.50712C102.928 6.93276 103.269 5.5325 103.95 4.30632C104.631 3.065 105.577 2.10373 106.788 1.42252C108.014 0.726172 109.4 0.377997 110.944 0.377997C112.836 0.377997 114.456 0.877552 115.803 1.87666C117.15 2.87577 118.051 4.2382 118.505 5.96393H114.236C113.918 5.29786 113.464 4.79073 112.874 4.44256C112.298 4.09438 111.64 3.9203 110.898 3.9203C109.702 3.9203 108.733 4.33659 107.992 5.16918C107.25 6.00178 106.879 7.11442 106.879 8.50712C106.879 9.89982 107.25 11.0125 107.992 11.8451C108.733 12.6776 109.702 13.0939 110.898 13.0939C111.64 13.0939 112.298 12.9199 112.874 12.5717C113.464 12.2235 113.918 11.7164 114.236 11.0503H118.505C118.051 12.776 117.15 14.1385 115.803 15.1376C114.456 16.1215 112.836 16.6135 110.944 16.6135C109.4 16.6135 108.014 16.2729 106.788 15.5917C105.577 14.8954 104.631 13.9341 103.95 12.7079C103.269 11.4817 102.928 10.0815 102.928 8.50712ZM129.443 16.5L124.085 9.46082V16.5H120.202V0.559654H124.085V7.55342L129.398 0.559654H133.962L127.786 8.37088L134.189 16.5H129.443Z" fill="#6319FF"/>
</svg>
