<svg width="42" height="42" viewBox="0 0 42 42" fill="none" xmlns="http://www.w3.org/2000/svg">
<rect width="42" height="42" rx="21" fill="#FBCCD2"/>
<path d="M27.5625 16.225C28.1458 16.5566 28.5042 17.1775 28.5 17.8483V23.9183C28.5 24.5925 28.1308 25.2142 27.535 25.5417L21.91 29.1C21.6311 29.2531 21.3181 29.3334 21 29.3334C20.6819 29.3334 20.3689 29.2531 20.09 29.1L14.465 25.5417C14.1735 25.3823 13.9301 25.1476 13.7603 24.862C13.5906 24.5765 13.5007 24.2505 13.5 23.9183V17.8475C13.5 17.1733 13.8692 16.5525 14.465 16.225L20.09 12.9083C20.3771 12.75 20.6996 12.667 21.0275 12.667C21.3554 12.667 21.6779 12.75 21.965 12.9083L27.59 16.225H27.5625Z" stroke="#131313" stroke-width="1.4" stroke-linecap="round" stroke-linejoin="round"/>
<path d="M21 24.3335V24.3418" stroke="#131313" stroke-width="1.4" stroke-linecap="round" stroke-linejoin="round"/>
<path d="M21 21.8331C21.3748 21.8343 21.739 21.709 22.0339 21.4777C22.3287 21.2463 22.537 20.9223 22.625 20.558C22.7131 20.1937 22.6758 19.8103 22.5191 19.4699C22.3625 19.1294 22.0956 18.8516 21.7617 18.6815C21.4301 18.5116 21.0509 18.459 20.6857 18.5321C20.3204 18.6051 19.9907 18.7997 19.75 19.084" stroke="#131313" stroke-width="1.4" stroke-linecap="round" stroke-linejoin="round"/>
</svg>
