<svg width="32" height="32" viewBox="0 0 32 32" fill="none" xmlns="http://www.w3.org/2000/svg">
<path d="M1.33224 30.6435C2.9007 32.2101 6.85891 32.3601 11.2933 31.2634L0.708524 20.6875C-0.386299 25.1175 -0.239394 29.0757 1.33224 30.6435Z" fill="#A38EDB"/>
<path d="M7.70305 7.69771C4.68959 10.708 2.49171 14.846 1.23352 18.8207L13.1613 30.739C17.1392 29.4815 21.281 27.2887 24.2957 24.2752C27.3086 21.2643 29.5064 17.1256 30.7653 13.1516L18.8374 1.23389C14.8596 2.49208 10.7159 4.68806 7.70305 7.69771ZM23.4339 12.8286C23.7638 13.1573 23.7638 13.6942 23.4327 14.0229C23.2693 14.1894 23.0508 14.2705 22.8349 14.2705C22.6177 14.2705 22.4024 14.1894 22.2372 14.0229L20.7732 12.5595L19.6195 13.7101L21.0835 15.1759C21.4159 15.5046 21.4159 16.0416 21.0835 16.3702C20.9201 16.5374 20.7035 16.619 20.4863 16.619C20.2691 16.619 20.0545 16.538 19.8892 16.3702L18.4246 14.9075L17.2715 16.0574L18.7355 17.5233C19.0679 17.8538 19.0679 18.3889 18.7355 18.7188C18.5721 18.8853 18.3543 18.9683 18.1371 18.9683C17.9199 18.9683 17.7053 18.8859 17.5394 18.7188L16.0754 17.2548L14.921 18.4053L16.3857 19.8706C16.7175 20.2005 16.7175 20.7362 16.3857 21.0667C16.2217 21.2339 16.0032 21.3156 15.7879 21.3156C15.5732 21.3156 15.356 21.2345 15.1889 21.0667L13.7255 19.6021L12.8992 20.4278C12.7776 20.5469 12.6275 20.6254 12.4724 20.6551L14.0383 22.2198C14.3682 22.5497 14.3682 23.0854 14.0383 23.4159C13.8724 23.5806 13.6546 23.6642 13.4374 23.6642C13.2228 23.6642 13.0056 23.5806 12.8397 23.4159L8.56738 19.1481C8.23748 18.8163 8.23748 18.2793 8.56738 17.9488C8.89729 17.6189 9.43298 17.6189 9.76352 17.9488L11.4707 19.6547C11.5011 19.4995 11.5796 19.3501 11.7011 19.2317L12.5275 18.406L10.9172 16.797C10.5867 16.4664 10.5867 15.9314 10.9172 15.6008C11.2478 15.2722 11.7828 15.2722 12.1127 15.6008L13.7243 17.2111L14.8754 16.0574L13.2664 14.4497C12.9334 14.1204 12.9334 13.5853 13.2664 13.2523C13.597 12.923 14.1327 12.923 14.4626 13.2523L16.0735 14.8625L17.2247 13.7094L15.6157 12.1017C15.2864 11.7699 15.2864 11.2342 15.6157 10.9043C15.9462 10.5738 16.4819 10.5738 16.8124 10.9043L18.4202 12.5133L19.5739 11.3615L17.9661 9.75375C17.6331 9.42322 17.6331 8.88815 17.9661 8.55952C18.2961 8.22645 18.8317 8.22645 19.1629 8.55952L23.4339 12.8286Z" fill="#A38EDB"/>
<path d="M30.6691 1.32968C29.0974 -0.237523 25.1399 -0.386328 20.7048 0.709129L31.2902 11.2863C32.387 6.85128 32.2375 2.89814 30.6691 1.32968Z" fill="#A38EDB"/>
</svg>
