<svg width="19" height="18" viewBox="0 0 19 18" fill="none" xmlns="http://www.w3.org/2000/svg">
<path d="M6.03035 5.28164L0.713682 6.05247L0.619515 6.07164C0.476965 6.10948 0.347011 6.18448 0.242925 6.28898C0.13884 6.39347 0.0643514 6.52372 0.027067 6.66641C-0.0102174 6.80911 -0.00896206 6.95915 0.0307049 7.1012C0.0703718 7.24326 0.147029 7.37224 0.252849 7.47497L4.10452 11.2241L3.19618 16.52L3.18535 16.6116C3.17662 16.7591 3.20724 16.9062 3.27406 17.0379C3.34088 17.1696 3.4415 17.2812 3.56563 17.3612C3.68975 17.4413 3.83292 17.4869 3.98047 17.4934C4.12802 17.4999 4.27465 17.4671 4.40535 17.3983L9.16035 14.8983L13.9045 17.3983L13.9878 17.4366C14.1254 17.4908 14.2749 17.5074 14.421 17.4848C14.5671 17.4621 14.7045 17.401 14.8192 17.3077C14.9339 17.2144 15.0216 17.0923 15.0735 16.9538C15.1254 16.8154 15.1396 16.6657 15.1145 16.52L14.2053 11.2241L18.0587 7.47414L18.1237 7.40331C18.2165 7.28895 18.2774 7.15202 18.3001 7.00647C18.3228 6.86092 18.3065 6.71196 18.2529 6.57475C18.1993 6.43754 18.1103 6.317 17.9949 6.2254C17.8796 6.1338 17.742 6.07442 17.5962 6.05331L12.2795 5.28164L9.90285 0.464975C9.83408 0.32542 9.72761 0.207904 9.59551 0.125728C9.4634 0.0435528 9.31093 0 9.15535 0C8.99977 0 8.8473 0.0435528 8.71519 0.125728C8.58309 0.207904 8.47662 0.32542 8.40785 0.464975L6.03035 5.28164Z" fill="#FF9529"/>
</svg>
