<svg width="196" height="142" viewBox="0 0 196 142" fill="none" xmlns="http://www.w3.org/2000/svg">
<path d="M14.8899 112.583C7.48048 97.8771 15.0931 80.0416 30.838 75.2187L81.0283 59.8446C87.58 57.8378 93.744 54.7321 99.2557 50.661L141.369 19.5539C154.672 9.72827 173.617 14.2431 181.058 29.0119C188.429 43.6415 181.002 61.398 165.41 66.4221L112.33 83.5253C106.206 85.4985 100.437 88.4356 95.2385 92.2264L54.2775 122.097C41.0257 131.76 22.2698 127.23 14.8899 112.583Z" fill="#D8FA50" stroke="white"/>
<circle cx="162" cy="37.9998" r="6" fill="#1E0A52"/>
<path d="M70.509 81.1949C70.9265 82.0237 70.9887 82.8583 70.6955 83.6987C70.4071 84.5249 69.6818 85.2307 68.5196 85.8163L66.6049 86.781L68.6999 90.939L67.3996 91.5942L62.3817 81.6348L65.5967 80.015C66.7207 79.4487 67.7101 79.2906 68.5648 79.5408C69.4289 79.7862 70.077 80.3376 70.509 81.1949ZM67.9797 84.7446C68.7036 84.3798 69.1579 83.9539 69.3424 83.4668C69.527 82.9796 69.4729 82.4455 69.1801 81.8644C68.561 80.6356 67.5465 80.3763 66.1366 81.0867L64.2219 82.0514L66.0649 85.7093L67.9797 84.7446ZM71.6471 76.1962L76.9746 86.7699L75.6743 87.425L70.3468 76.8513L71.6471 76.1962ZM76.7179 81.9544C76.3147 81.1542 76.1239 80.3725 76.1454 79.6092C76.1621 78.8363 76.3675 78.1416 76.7615 77.5251C77.1651 76.9037 77.7146 76.4178 78.41 76.0674C79.0958 75.7219 79.7656 75.5696 80.4192 75.6105C81.0729 75.6514 81.6363 75.8333 82.1096 76.1563L81.3897 74.7274L82.7042 74.0651L86.6494 81.8953L85.3349 82.5577L84.6005 81.1002C84.5737 81.687 84.3799 82.2625 84.0191 82.8265C83.663 83.3761 83.1468 83.8214 82.4704 84.1621C81.7751 84.5125 81.06 84.6578 80.3251 84.598C79.5903 84.5383 78.905 84.2804 78.2692 83.8244C77.6333 83.3684 77.1162 82.7451 76.7179 81.9544ZM83.3551 78.6282C83.0575 78.0376 82.6793 77.5832 82.2203 77.265C81.7614 76.9468 81.2695 76.7766 80.7447 76.7544C80.2247 76.7178 79.7217 76.8219 79.2359 77.0667C78.7501 77.3114 78.3647 77.6489 78.0798 78.0791C77.7949 78.5093 77.6438 79.0035 77.6264 79.5617C77.609 80.1199 77.7491 80.6943 78.0467 81.2849C78.3491 81.885 78.7321 82.3489 79.1959 82.6767C79.6548 82.9949 80.1443 83.1723 80.6644 83.2088C81.1796 83.2359 81.6802 83.127 82.166 82.8822C82.6518 82.6375 83.0372 82.3 83.3221 81.8698C83.6117 81.4252 83.7652 80.9239 83.7826 80.3657C83.7951 79.798 83.6526 79.2188 83.3551 78.6282ZM87.0276 73.2305L89.353 77.8458C89.5449 78.2268 89.7627 78.4575 90.0062 78.5379C90.245 78.6087 90.5644 78.5433 90.9645 78.3417L91.9218 77.8594L92.4762 78.9596L91.3045 79.55C90.5805 79.9147 89.9535 80.0216 89.4236 79.8706C88.8936 79.7195 88.4366 79.263 88.0527 78.5009L85.7273 73.8856L84.7128 74.3968L84.1729 73.3251L85.1874 72.814L84.1939 70.8421L85.4942 70.187L86.4877 72.1588L88.531 71.1293L89.0709 72.201L87.0276 73.2305ZM93.8328 69.8018L92.1896 70.6297L95.5948 77.3883L94.2945 78.0435L90.8893 71.2848L89.8748 71.796L89.3348 70.7243L90.3493 70.2132L90.0686 69.6559C89.627 68.7795 89.5293 68.0285 89.7754 67.4028C90.0263 66.7629 90.6518 66.1909 91.652 65.6869L92.1992 66.7729C91.6276 67.0609 91.2804 67.3791 91.1574 67.7278C91.0392 68.062 91.1097 68.4864 91.3688 69.0008L91.6496 69.558L93.2928 68.7301L93.8328 69.8018ZM102.234 74.2045C101.5 74.5741 100.75 74.7434 99.9815 74.7123C99.2229 74.6765 98.5186 74.4401 97.8685 74.0033C97.2231 73.5521 96.6964 72.9216 96.2885 72.1119C95.8853 71.3117 95.7016 70.5204 95.7374 69.738C95.7779 68.9412 96.0166 68.2297 96.4535 67.6035C96.8857 66.9677 97.4733 66.4626 98.2163 66.0883C98.9593 65.7139 99.7149 65.5422 100.483 65.5733C101.246 65.5948 101.953 65.824 102.603 66.2608C103.263 66.6929 103.797 67.3138 104.204 68.1235C104.612 68.9332 104.791 69.7388 104.741 70.5404C104.696 71.3276 104.453 72.0416 104.011 72.6821C103.569 73.3227 102.977 73.8302 102.234 74.2045ZM101.658 73.0614C102.125 72.8262 102.508 72.4959 102.807 72.0704C103.106 71.645 103.269 71.1507 103.296 70.5878C103.333 70.02 103.192 69.4217 102.876 68.793C102.559 68.1643 102.166 67.6933 101.698 67.3799C101.229 67.0665 100.742 66.9058 100.237 66.8978C99.7261 66.8803 99.2375 66.9891 98.7707 67.2243C98.2944 67.4642 97.9114 67.7946 97.6217 68.2152C97.3368 68.6216 97.1856 69.1039 97.1682 69.662C97.1509 70.2202 97.3006 70.8137 97.6173 71.4424C97.9389 72.0806 98.3244 72.5612 98.7738 72.8842C99.2327 73.2024 99.7126 73.3727 100.214 73.395C100.71 73.4078 101.191 73.2966 101.658 73.0614ZM105.89 63.9779C105.893 63.4149 106.041 62.9041 106.336 62.4452C106.64 61.9816 107.096 61.5962 107.706 61.289L108.383 62.6321L108.04 62.8049C106.582 63.5392 106.252 64.6971 107.049 66.2784L109.194 70.5364L107.894 71.1916L103.949 63.3613L105.249 62.7061L105.89 63.9779ZM118.623 55.7884C119.233 55.4812 119.841 55.3363 120.447 55.3535C121.048 55.3612 121.614 55.5479 122.144 55.9136C122.675 56.2793 123.123 56.8241 123.487 57.5481L125.813 62.1633L124.527 62.8113L122.295 58.3817C121.901 57.6006 121.406 57.1036 120.809 56.8908C120.217 56.6636 119.592 56.7157 118.935 57.0468C118.259 57.3876 117.831 57.8779 117.652 58.5176C117.467 59.1479 117.582 59.8726 117.995 60.6918L120.169 65.0071L118.883 65.655L116.651 61.2254C116.257 60.4443 115.762 59.9473 115.165 59.7345C114.573 59.5074 113.948 59.5594 113.291 59.8905C112.615 60.2313 112.187 60.7216 112.007 61.3613C111.823 61.9916 111.938 62.7163 112.35 63.5355L114.525 67.8508L113.224 68.5059L109.279 60.6756L110.579 60.0205L111.148 61.1493C111.199 60.6101 111.384 60.123 111.702 59.6879C112.03 59.248 112.455 58.8961 112.979 58.6321C113.637 58.301 114.292 58.1558 114.946 58.1968C115.599 58.2377 116.194 58.4815 116.73 58.9283C116.67 58.2654 116.816 57.6544 117.168 57.0952C117.519 56.536 118.004 56.1004 118.623 55.7884ZM130.783 59.8206C130.182 60.123 129.594 60.2941 129.017 60.3341C128.435 60.3645 127.915 60.2683 127.456 60.0455C126.993 59.8132 126.627 59.4661 126.358 59.0042L127.701 58.3274C127.936 58.6988 128.278 58.9267 128.726 59.0112C129.185 59.0909 129.68 58.9964 130.214 58.7276C130.709 58.478 131.045 58.1717 131.22 57.8086C131.395 57.4455 131.399 57.0973 131.231 56.7639C131.058 56.4209 130.779 56.2453 130.392 56.2369C130.001 56.2191 129.446 56.2899 128.726 56.4496C128.068 56.5899 127.515 56.6775 127.066 56.7122C126.623 56.7327 126.191 56.6577 125.771 56.4872C125.355 56.3025 125.02 55.9577 124.766 55.4528C124.564 55.0527 124.498 54.626 124.569 54.1726C124.639 53.7192 124.845 53.2868 125.187 52.8755C125.525 52.4547 125.974 52.1027 126.536 51.8195C127.403 51.3828 128.214 51.2491 128.968 51.4185C129.722 51.588 130.31 52.0441 130.732 52.787L129.432 53.4421C129.197 53.0469 128.865 52.8022 128.435 52.7082C128.015 52.6093 127.553 52.687 127.048 52.9414C126.581 53.1766 126.26 53.4638 126.084 53.803C125.909 54.1422 125.903 54.4738 126.066 54.7977C126.196 55.0549 126.385 55.2284 126.633 55.3183C126.886 55.3938 127.163 55.4216 127.463 55.4016C127.768 55.3673 128.176 55.2992 128.686 55.1975C129.325 55.0667 129.859 54.9888 130.288 54.9636C130.713 54.9289 131.123 54.9968 131.52 55.1673C131.926 55.333 132.253 55.6516 132.503 56.1231C132.719 56.5518 132.794 56.9976 132.729 57.4605C132.663 57.9234 132.462 58.3653 132.125 58.7861C131.792 59.1926 131.345 59.5375 130.783 59.8206Z" fill="#1E0A52"/>
</svg>
