<svg width="40" height="22" viewBox="0 0 40 22" fill="none" xmlns="http://www.w3.org/2000/svg">
<path d="M24.3023 0.763125C24.2271 0.322422 23.8452 0 23.3978 0H2.76803C2.1735 0 1.69209 0.481952 1.69209 1.07539C1.69209 1.66992 2.1735 2.15133 2.76803 2.15133H7.78858C8.38311 2.15133 8.86451 2.63336 8.86451 3.22734C8.86451 3.82133 8.38311 4.30328 7.78858 4.30328H1.076C0.482014 4.30328 6.10352e-05 4.78523 6.10352e-05 5.37922C6.10352e-05 5.9732 0.482014 6.45453 1.076 6.45453H10.2255C10.7505 6.45453 11.1765 6.88109 11.1765 7.40609C11.1765 7.93109 10.7505 8.35703 10.2255 8.35703H5.36451C4.76998 8.35703 4.28858 8.83906 4.28858 9.43305C4.28858 10.027 4.76998 10.509 5.36451 10.509H8.94709C9.47256 10.509 9.89858 10.9349 9.89858 11.4599C9.89858 11.9848 9.47256 12.4109 8.94709 12.4109H4.00123C3.4067 12.4109 2.9253 12.8928 2.9253 13.4868C2.9253 14.0808 3.4067 14.5627 4.00123 14.5627H10.7992L11.228 16.9879H13.6905C13.5456 17.3398 13.463 17.7239 13.463 18.1284C13.463 19.7881 14.8082 21.1334 16.468 21.1334C18.1272 21.1334 19.4724 19.7881 19.4724 18.1284C19.4724 17.7239 19.3898 17.3398 19.245 16.9879H27.0606L24.3023 0.763125ZM17.7612 18.1283C17.7612 18.8428 17.1825 19.4215 16.468 19.4215C15.753 19.4215 15.1742 18.8428 15.1742 18.1283C15.1742 17.6311 15.4576 17.2045 15.8689 16.9878H17.0665C17.4777 17.2045 17.7612 17.631 17.7612 18.1283Z" fill="#A38EDB"/>
<path d="M39.9687 15.1035L38.7344 9.01438L34.2274 2.08008H26.0215L28.5632 16.9878H31.5648C31.4205 17.3397 31.3379 17.7238 31.3379 18.1283C31.3379 19.788 32.6831 21.1333 34.3423 21.1333C36.0021 21.1333 37.3473 19.788 37.3473 18.1283C37.3473 17.7238 37.2647 17.3397 37.1199 16.9878H38.4278C38.8996 16.9878 39.3465 16.7762 39.6452 16.4108C39.9433 16.046 40.0626 15.5657 39.9687 15.1035ZM30.6664 4.8543H32.7222L35.3911 8.95953H31.3667L30.6664 4.8543ZM35.636 18.1283C35.636 18.8428 35.0573 19.4215 34.3423 19.4215C33.6284 19.4215 33.0491 18.8428 33.0491 18.1283C33.0491 17.6311 33.3331 17.2045 33.7438 16.9878H34.9414C35.3527 17.2045 35.636 17.631 35.636 18.1283Z" fill="#A38EDB"/>
</svg>
