<svg width="156" height="47" viewBox="0 0 156 47" fill="none" xmlns="http://www.w3.org/2000/svg">
<g clip-path="url(#clip0_136_832)">
<g clip-path="url(#clip1_136_832)">
<g clip-path="url(#clip2_136_832)">
<path d="M41.7109 17.1133C40.3618 16.2518 38.6835 16.073 37.184 16.6338L33.4232 18.0378C30.4608 19.1431 27.1632 18.9013 24.3938 17.3754L1.27593 4.64209C1.27593 4.64209 2.31215 11.2658 9.83593 14.2911L0.132019 11.2658C0.132019 11.2658 1.11338 17.4811 12.4813 19.2792H4.22001C4.22001 19.2792 8.22674 23.0401 15.8318 22.6317L9.78107 23.4505C9.78107 23.4505 13.7776 25.6591 20.9032 25.6591C21.0962 25.6591 21.2852 25.6591 21.4721 25.6591C21.4619 25.6693 21.4497 25.6814 21.4396 25.6916L7.23318 33.0732H10.3175C11.8068 33.0732 13.2697 32.6749 14.5538 31.9191C15.8521 31.1551 17.3333 30.7569 18.8389 30.765L21.0413 30.7772C24.8388 30.8219 28.5468 29.613 31.5905 27.3394L41.7983 19.71C42.5785 19.1268 43.568 18.8647 44.5229 19.0557C44.8562 19.1228 45.1426 19.2386 45.2869 19.4336C45.2828 19.4357 45.4616 17.1519 41.7109 17.1133Z" fill="#FF5C2C"/>
<path d="M8.98663 24.8262V25.4317C8.98663 27.053 9.27109 28.6317 9.79936 30.1129L12.0872 29.0726C11.7194 27.9795 11.5142 26.8255 11.4919 25.643L8.98663 24.8262Z" fill="url(#paint0_linear_136_832)"/>
<path d="M35.6277 26.2589C35.3534 30.0522 33.2017 33.5043 29.8716 35.4081L23.575 39.0064L17.2784 35.4081C16.2849 34.8412 15.401 34.1321 14.6371 33.3194L12.5992 34.8046C13.5785 35.8896 14.7326 36.8324 16.039 37.5801L23.577 41.8896L31.115 37.5801C35.4733 35.0891 38.1634 30.4545 38.1634 25.4339V24.1986L35.6277 26.2589Z" fill="url(#paint1_linear_136_832)"/>
<path d="M38.0455 27.2197C38.1207 26.6305 38.1614 26.0332 38.1614 25.4317V24.1964L35.6277 26.2587C35.518 27.7846 35.0974 29.2556 34.4249 30.5925C35.713 29.5807 36.9138 28.4429 38.0455 27.2197Z" fill="url(#paint2_linear_136_832)"/>
<path d="M16.9513 35.213C16.0898 34.6806 15.3157 34.0406 14.6351 33.3193L12.5972 34.8046C13.3591 35.6498 14.2287 36.4057 15.1918 37.0538C15.7587 36.4219 16.3479 35.8083 16.9513 35.213Z" fill="url(#paint3_linear_136_832)"/>
<path d="M35.6602 12.2087V15.5876L38.1613 14.783V11.8166C38.1613 9.21587 36.0543 7.10889 33.4536 7.10889H9.78308L14.0174 9.61004H33.0615C34.496 9.61004 35.6602 10.7743 35.6602 12.2087Z" fill="url(#paint4_linear_136_832)"/>
<path d="M14.7326 15.2584L9.31985 14.0718H9.31781C2.37716 11.0099 1.30843 4.84333 1.27795 4.64624C1.345 4.81691 3.61047 10.3089 14.7326 15.2584Z" fill="url(#paint5_linear_136_832)"/>
<path d="M16.169 18.1333L12.4792 19.2793C1.29007 17.5096 0.164449 11.4589 0.133972 11.2699C0.253849 11.4467 4.52471 17.6762 16.169 18.1333Z" fill="url(#paint6_linear_136_832)"/>
<path d="M45.2056 19.3504C45.0492 19.2041 44.8013 19.1127 44.5189 19.0578C43.5639 18.8668 42.5744 19.1289 41.7942 19.712L31.5864 27.3415C28.5428 29.6151 24.8368 30.822 21.0373 30.7773L18.8348 30.7651H18.7901C17.2988 30.7651 15.8359 31.1633 14.5497 31.9191C13.2656 32.675 11.8048 33.0732 10.3154 33.0732H8.39539C10.3236 32.9371 12.3412 32.1731 13.4261 31.5209C14.7326 30.7366 16.4962 29.8223 22.1751 28.908C27.854 27.9937 36.9382 21.0713 40.3334 19.2793C43.2917 17.7168 44.8541 18.9968 45.2056 19.3504Z" fill="url(#paint7_linear_136_832)"/>
</g>
</g>
<path d="M62.1152 29.6266C58.3932 29.6266 56.0774 27.4348 56.0774 24.4986V14.8423H58.5587V24.4366C58.5587 26.2975 60.0681 27.3521 62.0945 27.3521C64.1415 27.3521 65.651 26.2975 65.651 24.4366V14.8423H68.1322V24.4986C68.1322 27.3934 65.8784 29.6266 62.1152 29.6266ZM72.3669 29.3164H69.927V18.3575H71.8913L72.1808 20.5079C72.8838 19.0191 74.1658 18.2334 75.9854 18.2334H76.3989V20.6113H75.9854C73.7109 20.6113 72.3669 21.8312 72.3669 23.899V29.3164ZM83.2767 29.6266C81.5398 29.6266 80.0924 28.7581 79.4101 27.3727L79.1826 29.3164H77.2183V13.8085H79.6582V19.7842C80.4439 18.709 81.7466 18.0266 83.2974 18.0266C86.1922 18.0266 88.2393 20.3838 88.2393 23.7749C88.2393 27.228 86.1922 29.6266 83.2767 29.6266ZM82.7391 27.5588C84.5174 27.5588 85.7373 26.008 85.7373 23.7749C85.7373 21.6038 84.5174 20.0943 82.7391 20.0943C80.9402 20.0943 79.6582 21.5831 79.6582 23.7129C79.6582 25.9667 80.9402 27.5588 82.7391 27.5588ZM92.932 29.5439C90.4094 29.5439 88.7552 28.3239 88.7759 26.2768C88.7966 23.7129 91.3399 23.1753 93.4696 22.9271C95.1238 22.741 96.3438 22.679 96.3645 21.8106C96.3438 20.7353 95.5167 20.0323 94.1106 20.0323C92.6632 20.0323 91.6294 20.8181 91.4846 21.9553H89.024C89.2515 19.6394 91.3192 18.0266 94.152 18.0266C97.1088 18.0266 98.7423 19.6394 98.7423 21.976V26.9385C98.7423 27.2487 98.9078 27.4141 99.2799 27.4141H99.8796V29.3164H98.7217C97.6051 29.3164 96.9227 28.8615 96.7366 28.0344C96.6953 27.931 96.6539 27.7863 96.6333 27.6622C95.9923 28.8408 94.793 29.5439 92.932 29.5439ZM93.4283 27.6209C95.1031 27.6209 96.3645 26.6697 96.3645 25.2016V23.6715C95.9509 24.3125 94.8964 24.4572 93.7384 24.602C92.3737 24.7674 91.2365 24.9535 91.2365 26.1114C91.2365 27.0626 92.0016 27.6209 93.4283 27.6209ZM103.102 29.3164H100.663V18.3575H102.627L102.834 19.9703C103.516 18.833 104.901 18.0266 106.535 18.0266C108.871 18.0266 110.402 19.5981 110.402 22.0587V29.3164H107.962V22.1827C107.962 20.9628 107.155 20.1564 105.791 20.1564C104.198 20.1564 103.123 21.2523 103.102 22.679V29.3164ZM118.031 29.5439C114.392 29.5439 111.89 27.6622 111.704 24.9328H113.524C113.73 26.7938 115.488 27.9724 118.031 27.9724C120.244 27.9724 121.402 27.0626 121.402 25.5531C121.402 24.0851 120.12 23.5268 118.734 23.0925L116.232 22.3068C115.074 21.9346 112.159 21.3143 112.159 18.4815C112.159 16.145 114.082 14.6149 117.08 14.6149C120.388 14.6149 122.435 16.2897 122.663 19.3706H120.864C120.719 17.3236 119.292 16.1863 116.997 16.1863C115.178 16.1863 113.896 17.0134 113.896 18.3988C113.896 19.991 115.55 20.3218 116.791 20.7147L119.127 21.4384C120.967 22.0173 123.18 22.741 123.18 25.4704C123.18 28.0137 121.236 29.5439 118.031 29.5439ZM128.793 29.3164H126.891L123.644 18.3575H125.402L127.924 27.1866L130.364 18.3575H131.853L134.293 27.1453L136.795 18.3575H138.553L135.306 29.3164H133.425L131.109 20.9628L128.793 29.3164ZM140.408 16.5172C139.684 16.5172 139.126 15.9589 139.126 15.2352C139.126 14.5115 139.684 13.9739 140.408 13.9739C141.132 13.9739 141.669 14.5115 141.669 15.2352C141.669 15.9589 141.132 16.5172 140.408 16.5172ZM141.256 29.3164H139.54V18.3575H141.256V29.3164ZM146.172 29.3164H144.456V19.8049H142.429V18.3575H144.456V16.8273C144.456 14.863 145.552 13.8085 147.578 13.8085H150.018V15.2559H147.578C146.668 15.2559 146.172 15.8142 146.172 16.8273V18.3575H151.134V14.6149H152.851V18.3575H155.808V19.8049H152.851V26.1941C152.851 27.29 153.388 27.869 154.401 27.869H155.621V29.3164H154.401C152.272 29.3164 151.134 28.2205 151.134 26.1941V19.8049H146.172V29.3164Z" fill="black"/>
</g>
<defs>
<linearGradient id="paint0_linear_136_832" x1="10.5369" y1="24.8262" x2="10.5369" y2="29.3081" gradientUnits="userSpaceOnUse">
<stop stop-color="#FFEEE7"/>
<stop offset="1" stop-color="#FF5C2C"/>
</linearGradient>
<linearGradient id="paint1_linear_136_832" x1="25.3813" y1="24.1986" x2="25.3813" y2="39.1964" gradientUnits="userSpaceOnUse">
<stop stop-color="#FFEEE7"/>
<stop offset="1" stop-color="#FF5C2C"/>
</linearGradient>
<linearGradient id="paint2_linear_136_832" x1="36.2931" y1="24.1964" x2="36.2931" y2="29.6188" gradientUnits="userSpaceOnUse">
<stop stop-color="#FFEEE7"/>
<stop offset="1" stop-color="#FF5C2C"/>
</linearGradient>
<linearGradient id="paint3_linear_136_832" x1="14.7742" y1="33.3193" x2="14.7742" y2="36.4853" gradientUnits="userSpaceOnUse">
<stop stop-color="#FFEEE7"/>
<stop offset="1" stop-color="#FF5C2C"/>
</linearGradient>
<linearGradient id="paint4_linear_136_832" x1="23.9722" y1="7.10889" x2="23.9722" y2="14.2969" gradientUnits="userSpaceOnUse">
<stop stop-color="#FFEEE7"/>
<stop offset="1" stop-color="#FF5C2C"/>
</linearGradient>
<linearGradient id="paint5_linear_136_832" x1="8.00527" y1="4.64624" x2="8.00527" y2="13.6428" gradientUnits="userSpaceOnUse">
<stop stop-color="#FFEEE7"/>
<stop offset="1" stop-color="#FF5C2C"/>
</linearGradient>
<linearGradient id="paint6_linear_136_832" x1="8.15148" y1="11.2699" x2="8.15148" y2="18.06" gradientUnits="userSpaceOnUse">
<stop stop-color="#FFEEE7"/>
<stop offset="1" stop-color="#FF5C2C"/>
</linearGradient>
<linearGradient id="paint7_linear_136_832" x1="26.8005" y1="18.5211" x2="26.8005" y2="30.8579" gradientUnits="userSpaceOnUse">
<stop stop-color="#FFEEE7"/>
<stop offset="1" stop-color="#FF5C2C"/>
</linearGradient>
<clipPath id="clip0_136_832">
<rect width="156" height="46.4297" fill="white"/>
</clipPath>
<clipPath id="clip1_136_832">
<rect width="46.4297" height="46.4297" fill="white" transform="translate(-0.448303)"/>
</clipPath>
<clipPath id="clip2_136_832">
<rect width="45.1528" height="37.245" fill="white" transform="translate(0.132019 4.64294)"/>
</clipPath>
</defs>
</svg>
